<svg width="200" height="200" viewBox="0 0 200 200" fill="none" xmlns="http://www.w3.org/2000/svg">
<g clip-path="url(#clip0_156_22)">
<path d="M99.9958 0C44.7746 0 0 44.7746 0 99.9958C0 155.217 44.7746 200 99.9958 200C155.217 200 200 155.217 200 99.9958C200 44.7746 155.217 0 99.9958 0ZM120.813 154.98C115.666 157.012 111.568 158.552 108.495 159.619C105.431 160.686 101.867 161.219 97.8116 161.219C91.581 161.219 86.7302 159.695 83.2762 156.656C79.8222 153.617 78.1037 149.765 78.1037 145.084C78.1037 143.263 78.2307 141.401 78.4847 139.505C78.7471 137.608 79.1619 135.475 79.7291 133.079L86.1714 110.324C86.7386 108.14 87.2296 106.066 87.6191 104.135C88.0085 102.188 88.1947 100.402 88.1947 98.7767C88.1947 95.8815 87.5937 93.8497 86.4 92.7069C85.1894 91.564 82.9122 91.0053 79.5175 91.0053C77.8582 91.0053 76.1482 91.2508 74.3958 91.7672C72.6603 92.3005 71.1534 92.7831 69.9175 93.2571L71.619 86.2476C75.8349 84.5291 79.873 83.0561 83.7249 81.837C87.5767 80.6011 91.2169 79.9915 94.6455 79.9915C100.834 79.9915 105.608 81.4984 108.969 84.4783C112.313 87.4667 113.998 91.3524 113.998 96.127C113.998 97.1175 113.879 98.8614 113.651 101.35C113.422 103.848 112.99 106.125 112.364 108.216L105.956 130.904C105.431 132.724 104.965 134.806 104.542 137.134C104.127 139.462 103.924 141.24 103.924 142.434C103.924 145.448 104.593 147.505 105.947 148.597C107.285 149.689 109.63 150.239 112.948 150.239C114.514 150.239 116.267 149.96 118.248 149.418C120.212 148.876 121.634 148.394 122.531 147.979L120.813 154.98ZM119.678 62.891C116.69 65.6677 113.092 67.0561 108.885 67.0561C104.686 67.0561 101.062 65.6677 98.0487 62.891C95.0519 60.1143 93.5365 56.7365 93.5365 52.7915C93.5365 48.855 95.0603 45.4688 98.0487 42.6667C101.062 39.8561 104.686 38.4593 108.885 38.4593C113.092 38.4593 116.698 39.8561 119.678 42.6667C122.667 45.4688 124.165 48.855 124.165 52.7915C124.165 56.745 122.667 60.1143 119.678 62.891Z" fill="#22B123"/>
</g>
<defs>
<clipPath id="clip0_156_22">
<rect width="200" height="200" fill="white"/>
</clipPath>
</defs>
</svg>
