<svg width="498" height="61" viewBox="0 0 498 61" fill="none" xmlns="http://www.w3.org/2000/svg">
<path d="M31.084 60H0.636V1.04H29.676C33.9 1.04 37.4493 1.568 40.324 2.624C43.1987 3.62133 45.3693 5.20533 46.836 7.376C48.3027 9.54666 49.036 12.3333 49.036 15.736C49.036 19.256 48.0387 22.1307 46.044 24.36C44.108 26.5307 41.1747 27.8507 37.244 28.32V29.2C41.996 29.552 45.5453 31.0773 47.892 33.776C50.2387 36.4747 51.412 39.8187 51.412 43.808C51.412 47.0933 50.6493 49.968 49.124 52.432C47.6573 54.8373 45.3987 56.7147 42.348 58.064C39.356 59.3547 35.6013 60 31.084 60ZM13.836 35.096V48.12H30.644C33.0493 48.12 34.8973 47.7387 36.188 46.976C37.4787 46.2133 38.124 44.4533 38.124 41.696C38.124 38.8213 37.4787 37.0027 36.188 36.24C34.956 35.4773 33.108 35.096 30.644 35.096H13.836ZM13.836 12.92V24.36H28.796C31.26 24.36 33.0493 23.9787 34.164 23.216C35.2787 22.4533 35.836 20.928 35.836 18.64C35.836 16.2347 35.2493 14.68 34.076 13.976C32.9613 13.272 31.2013 12.92 28.796 12.92H13.836ZM97.8224 60H85.5904V52.256L85.3264 49.704V32.544C85.3264 29.9627 84.6517 28.2907 83.3024 27.528C81.953 26.7653 79.9584 26.384 77.3184 26.384C74.6784 26.384 72.7717 26.824 71.5984 27.704C70.425 28.584 69.8384 30.1387 69.8384 32.368V33.336H57.2544V32.368C57.2544 28.848 58.105 25.768 59.8064 23.128C61.5664 20.488 63.9717 18.464 67.0224 17.056C70.1317 15.5893 73.769 14.856 77.9344 14.856C82.2757 14.856 85.913 15.6187 88.8464 17.144C91.8384 18.6107 94.0677 20.752 95.5344 23.568C97.0597 26.384 97.8224 29.7867 97.8224 33.776V60ZM70.0144 60.88C66.0837 60.88 62.769 59.8533 60.0704 57.8C57.4304 55.7467 56.1104 52.7253 56.1104 48.736C56.1104 46.448 56.6384 44.4533 57.6944 42.752C58.809 41.0507 60.393 39.672 62.4464 38.616C64.5584 37.5013 67.1397 36.7093 70.1904 36.24L86.2064 33.864V42.4L72.6544 44.512C71.305 44.7467 70.3077 45.0987 69.6624 45.568C69.017 46.0373 68.6944 46.7413 68.6944 47.68C68.6944 48.8533 69.1637 49.6747 70.1024 50.144C71.041 50.6133 72.4784 50.848 74.4144 50.848C76.233 50.848 77.9637 50.6427 79.6064 50.232C81.3077 49.7627 82.6864 48.9413 83.7424 47.768C84.7984 46.536 85.3264 44.776 85.3264 42.488L86.5584 54.016H85.0624C84.2997 55.072 83.2437 56.128 81.8944 57.184C80.6037 58.24 78.9904 59.12 77.0544 59.824C75.1184 60.528 72.7717 60.88 70.0144 60.88ZM149.738 60H136.538V34.568C136.538 31.5173 135.922 29.376 134.69 28.144C133.458 26.8533 131.17 26.208 127.826 26.208C125.714 26.208 123.983 26.472 122.634 27C121.343 27.528 120.375 28.4373 119.73 29.728C119.084 30.96 118.762 32.6907 118.762 34.92H116.914L115.858 23.48H118.41C119.231 21.7787 120.287 20.2827 121.578 18.992C122.927 17.7013 124.57 16.704 126.506 16C128.442 15.2373 130.7 14.856 133.282 14.856C137.154 14.856 140.292 15.6187 142.698 17.144C145.103 18.6693 146.863 20.752 147.978 23.392C149.151 25.9733 149.738 28.8187 149.738 31.928V60ZM118.762 60H105.65V15.736H117.882V28.232L118.762 28.672V60ZM197.338 60H185.106V52.256L184.842 49.704V32.544C184.842 29.9627 184.167 28.2907 182.818 27.528C181.469 26.7653 179.474 26.384 176.834 26.384C174.194 26.384 172.287 26.824 171.114 27.704C169.941 28.584 169.354 30.1387 169.354 32.368V33.336H156.77V32.368C156.77 28.848 157.621 25.768 159.322 23.128C161.082 20.488 163.487 18.464 166.538 17.056C169.647 15.5893 173.285 14.856 177.45 14.856C181.791 14.856 185.429 15.6187 188.362 17.144C191.354 18.6107 193.583 20.752 195.05 23.568C196.575 26.384 197.338 29.7867 197.338 33.776V60ZM169.53 60.88C165.599 60.88 162.285 59.8533 159.586 57.8C156.946 55.7467 155.626 52.7253 155.626 48.736C155.626 46.448 156.154 44.4533 157.21 42.752C158.325 41.0507 159.909 39.672 161.962 38.616C164.074 37.5013 166.655 36.7093 169.706 36.24L185.722 33.864V42.4L172.17 44.512C170.821 44.7467 169.823 45.0987 169.178 45.568C168.533 46.0373 168.21 46.7413 168.21 47.68C168.21 48.8533 168.679 49.6747 169.618 50.144C170.557 50.6133 171.994 50.848 173.93 50.848C175.749 50.848 177.479 50.6427 179.122 50.232C180.823 49.7627 182.202 48.9413 183.258 47.768C184.314 46.536 184.842 44.776 184.842 42.488L186.074 54.016H184.578C183.815 55.072 182.759 56.128 181.41 57.184C180.119 58.24 178.506 59.12 176.57 59.824C174.634 60.528 172.287 60.88 169.53 60.88ZM249.253 60H236.053V34.568C236.053 31.5173 235.437 29.376 234.205 28.144C232.973 26.8533 230.685 26.208 227.341 26.208C225.229 26.208 223.499 26.472 222.149 27C220.859 27.528 219.891 28.4373 219.245 29.728C218.6 30.96 218.277 32.6907 218.277 34.92H216.429L215.373 23.48H217.925C218.747 21.7787 219.803 20.2827 221.093 18.992C222.443 17.7013 224.085 16.704 226.021 16C227.957 15.2373 230.216 14.856 232.797 14.856C236.669 14.856 239.808 15.6187 242.213 17.144C244.619 18.6693 246.379 20.752 247.493 23.392C248.667 25.9733 249.253 28.8187 249.253 31.928V60ZM218.277 60H205.165V15.736H217.397V28.232L218.277 28.672V60ZM296.854 60H284.622V52.256L284.358 49.704V32.544C284.358 29.9627 283.683 28.2907 282.334 27.528C280.984 26.7653 278.99 26.384 276.35 26.384C273.71 26.384 271.803 26.824 270.63 27.704C269.456 28.584 268.87 30.1387 268.87 32.368V33.336H256.286V32.368C256.286 28.848 257.136 25.768 258.838 23.128C260.598 20.488 263.003 18.464 266.054 17.056C269.163 15.5893 272.8 14.856 276.966 14.856C281.307 14.856 284.944 15.6187 287.878 17.144C290.87 18.6107 293.099 20.752 294.566 23.568C296.091 26.384 296.854 29.7867 296.854 33.776V60ZM269.046 60.88C265.115 60.88 261.8 59.8533 259.102 57.8C256.462 55.7467 255.142 52.7253 255.142 48.736C255.142 46.448 255.67 44.4533 256.726 42.752C257.84 41.0507 259.424 39.672 261.478 38.616C263.59 37.5013 266.171 36.7093 269.222 36.24L285.238 33.864V42.4L271.686 44.512C270.336 44.7467 269.339 45.0987 268.694 45.568C268.048 46.0373 267.726 46.7413 267.726 47.68C267.726 48.8533 268.195 49.6747 269.134 50.144C270.072 50.6133 271.51 50.848 273.446 50.848C275.264 50.848 276.995 50.6427 278.638 50.232C280.339 49.7627 281.718 48.9413 282.774 47.768C283.83 46.536 284.358 44.776 284.358 42.488L285.59 54.016H284.094C283.331 55.072 282.275 56.128 280.926 57.184C279.635 58.24 278.022 59.12 276.086 59.824C274.15 60.528 271.803 60.88 269.046 60.88Z" fill="#FECE2E"/>
<path d="M331.697 60.88C325.771 60.88 320.697 59.648 316.473 57.184C312.307 54.6613 309.081 51.1413 306.793 46.624C304.563 42.048 303.449 36.68 303.449 30.52C303.449 24.36 304.563 19.0213 306.793 14.504C309.081 9.928 312.307 6.408 316.473 3.944C320.697 1.42133 325.771 0.159999 331.697 0.159999C337.563 0.159999 342.462 1.128 346.393 3.064C350.382 5 353.403 7.75733 355.457 11.336C357.51 14.856 358.537 19.0507 358.537 23.92V24.712H344.457V24.272C344.457 20.048 343.489 17.1147 341.553 15.472C339.617 13.7707 336.302 12.92 331.609 12.92C328.265 12.92 325.566 13.4187 323.513 14.416C321.459 15.4133 319.934 17.1733 318.937 19.696C317.998 22.2187 317.529 25.8267 317.529 30.52C317.529 35.1547 317.998 38.7627 318.937 41.344C319.934 43.8667 321.459 45.6267 323.513 46.624C325.566 47.6213 328.265 48.12 331.609 48.12C336.302 48.12 339.617 47.2987 341.553 45.656C343.489 43.9547 344.457 40.992 344.457 36.768V36.328H358.537V37.12C358.537 41.9893 357.51 46.2133 355.457 49.792C353.403 53.312 350.382 56.04 346.393 57.976C342.462 59.912 337.563 60.88 331.697 60.88ZM405.307 60H393.075V52.256L392.811 49.704V32.544C392.811 29.9627 392.136 28.2907 390.787 27.528C389.437 26.7653 387.443 26.384 384.803 26.384C382.163 26.384 380.256 26.824 379.083 27.704C377.909 28.584 377.323 30.1387 377.323 32.368V33.336H364.739V32.368C364.739 28.848 365.589 25.768 367.291 23.128C369.051 20.488 371.456 18.464 374.507 17.056C377.616 15.5893 381.253 14.856 385.419 14.856C389.76 14.856 393.397 15.6187 396.331 17.144C399.323 18.6107 401.552 20.752 403.019 23.568C404.544 26.384 405.307 29.7867 405.307 33.776V60ZM377.499 60.88C373.568 60.88 370.253 59.8533 367.555 57.8C364.915 55.7467 363.595 52.7253 363.595 48.736C363.595 46.448 364.123 44.4533 365.179 42.752C366.293 41.0507 367.877 39.672 369.931 38.616C372.043 37.5013 374.624 36.7093 377.675 36.24L393.691 33.864V42.4L380.139 44.512C378.789 44.7467 377.792 45.0987 377.147 45.568C376.501 46.0373 376.179 46.7413 376.179 47.68C376.179 48.8533 376.648 49.6747 377.587 50.144C378.525 50.6133 379.963 50.848 381.899 50.848C383.717 50.848 385.448 50.6427 387.091 50.232C388.792 49.7627 390.171 48.9413 391.227 47.768C392.283 46.536 392.811 44.776 392.811 42.488L394.043 54.016H392.547C391.784 55.072 390.728 56.128 389.379 57.184C388.088 58.24 386.475 59.12 384.539 59.824C382.603 60.528 380.256 60.88 377.499 60.88ZM426.246 60H413.134V15.736H425.366V28.32L426.246 28.76V60ZM426.246 32.28H423.782V22.864H425.894C427.009 20.6347 428.563 18.7573 430.558 17.232C432.611 15.648 435.193 14.856 438.302 14.856C441.411 14.856 443.875 15.56 445.694 16.968C447.571 18.3173 448.921 20.1947 449.742 22.6C450.563 24.9467 450.974 27.616 450.974 30.608V34.656H437.862V32.28C437.862 29.8747 437.451 28.232 436.63 27.352C435.809 26.472 434.342 26.032 432.23 26.032C430.235 26.032 428.739 26.472 427.742 27.352C426.745 28.232 426.246 29.8747 426.246 32.28ZM476.781 60.88C471.735 60.88 467.57 59.9413 464.285 58.064C460.999 56.1867 458.565 53.5467 456.981 50.144C455.397 46.6827 454.605 42.6347 454.605 38C454.605 33.248 455.485 29.1413 457.245 25.68C459.063 22.2187 461.645 19.5493 464.989 17.672C468.333 15.7947 472.293 14.856 476.869 14.856C481.327 14.856 485.111 15.6773 488.221 17.32C491.389 18.9627 493.794 21.2507 495.437 24.184C497.138 27.0587 497.989 30.432 497.989 34.304C497.989 35.536 497.901 36.7387 497.725 37.912C497.607 39.0853 497.49 40.0533 497.373 40.816H460.413V32.808H486.109L485.229 33.512C485.463 31.8107 485.258 30.4027 484.613 29.288C484.026 28.1147 483.029 27.2347 481.621 26.648C480.271 26.0027 478.541 25.68 476.429 25.68C472.791 25.68 470.298 26.5013 468.949 28.144C467.599 29.7867 466.925 32.1333 466.925 35.184V39.056C466.925 41.52 467.189 43.5147 467.717 45.04C468.303 46.5653 469.33 47.68 470.797 48.384C472.263 49.088 474.317 49.44 476.957 49.44C479.597 49.44 481.503 49.1467 482.677 48.56C483.909 47.9147 484.525 46.9173 484.525 45.568V45.04H497.549V45.92C497.549 49.088 496.698 51.7867 494.997 54.016C493.295 56.2453 490.89 57.9467 487.781 59.12C484.671 60.2933 481.005 60.88 476.781 60.88Z" fill="#38B939"/>
</svg>
