<svg width="372" height="374" viewBox="0 0 372 374" fill="none" xmlns="http://www.w3.org/2000/svg">
<path d="M74.4176 135.424C73.0225 147.397 73.871 159.193 77.0446 170.837C83.015 192.742 96.9571 208.749 114.801 221.747C128.35 231.616 142.755 239.886 159.658 242.495C170.779 244.212 181.833 244.285 192.563 240.039C195.53 238.865 198.6 237.883 201.699 237.126C205.959 236.084 209.767 237.29 212.099 241.036C214.439 244.794 214.062 249.161 210.968 252.064C207.137 255.656 202.743 258.927 198.058 261.264C187.787 266.388 176.496 267.481 164.848 268.013C185.767 274.811 208.442 270.476 222.376 250.527C228.963 241.097 233.663 231.004 236.043 219.782C236.423 217.993 236.78 216.184 237.357 214.454C238.868 209.929 242.473 207.389 246.677 207.948C251.229 208.552 253.588 211.866 253.52 215.873C253.386 223.905 253.299 232.117 251.604 239.909C247.666 258.002 238.325 273.505 225.132 286.263C206.633 304.152 185.222 306.912 161.759 296.745C144.57 289.297 130.066 277.89 115.639 266.31C113.613 264.683 111.666 262.958 109.468 260.758C108.984 260.034 108.715 259.83 108.445 259.626C108.445 259.626 108.515 259.634 108.425 259.436C108.066 259.063 107.798 258.89 107.529 258.716C107.529 258.716 107.578 258.785 107.565 258.476C106.873 257.181 106.293 256.108 105.503 255.223C93.2696 241.524 83.9036 226.085 77.6984 208.791C70.5798 188.951 68.2889 168.506 71.0046 147.598C71.5419 143.462 73.2497 139.478 74.4176 135.424Z" fill="#FFEA32"/>
<path d="M71.0047 147.987C71.542 143.85 73.2497 139.866 74.4854 135.5C74.656 134.34 75.2606 132.85 75.2606 132.85C75.2606 132.85 75.7289 131.862 76.0616 131.003C80.0084 122.747 82.8551 115.103 86.5023 107.362C86.4929 107.362 86.4448 107.355 86.2287 107.296L76.0615 87C43.2889 110.926 47.7032 154.012 55.828 182.799C67.8393 218.169 83.0101 238.673 107.529 258.887C106.873 257.569 106.293 256.497 105.503 255.612C93.2695 241.912 83.9036 226.473 77.6984 209.179C70.5798 189.34 68.289 168.894 71.0047 147.987Z" fill="#FECE2E"/>
<path d="M229.507 288.842C244.008 273.343 254.235 255.59 257.632 234.379C258.472 229.129 258.35 223.73 258.988 218.438C259.226 216.464 260.502 213.049 261.146 213.078C263.482 213.183 266.656 213.744 267.792 215.401C269.582 218.015 270.623 221.569 270.801 224.79C271.467 236.832 269.71 248.662 264.648 259.617C262.539 264.18 259.172 268.64 255.284 271.796C247.492 278.123 238.947 283.52 230.273 289.238C229.724 289.064 229.616 288.953 229.507 288.842Z" fill="#FFEA32"/>
<path d="M273.892 256.661C272.501 257.827 271.359 258.78 270.878 259.182C272.216 249.173 273.707 238.821 274.913 228.436C275.206 225.913 274.352 223.273 274.431 220.7C274.477 219.205 274.92 217.052 275.933 216.441C277 215.797 279.302 216.129 280.467 216.919C284.481 219.644 285.86 224.113 285.8 228.561C285.723 234.334 285.734 240.51 283.698 245.726C282.065 249.909 277.439 252.919 273.892 256.661Z" fill="#FFEA32"/>
<path d="M295.203 224.278C291.027 229.906 290.076 235.699 290.374 242.178C290.381 242.162 290.422 242.129 290.632 242.089C297.498 234.8 304.72 228.053 310.524 220.248C330.166 193.832 340.064 164.398 332.409 131.503C327.563 110.679 316.381 94.1068 301.86 82.7487C300.737 87.9887 293.714 95.9463 288.665 102.063C305.689 114.477 314.208 139.864 315.2 161.011C316.312 184.707 309.07 205.587 295.203 224.278Z" fill="#FECE2E"/>
<path d="M315.2 161.011C316.312 184.707 309.07 205.587 295.203 224.278C291.027 229.906 290.076 235.699 290.374 242.178C290.381 242.162 290.422 242.129 290.632 242.089C297.498 234.8 304.72 228.053 310.524 220.248C330.166 193.832 340.064 164.398 332.409 131.503C330.622 150.352 320.192 159.029 315.2 161.011Z" fill="#FFEA32"/>
<g clip-path="url(#clip0_28_614)">
<path d="M264.786 116.46C261.548 118.616 259.942 116.498 258.27 114.734C255.702 112.025 253.183 109.269 249.413 106.997C250.225 109.764 251.018 112.537 251.853 115.298C254.292 123.365 249.384 129.526 240.81 128.565C238.698 128.328 238.348 128.452 237.028 130.174C233.064 135.347 226.935 134.911 222.978 129.727C214.8 119.015 212.496 118.976 206.309 130.573C196.684 148.614 195.206 168.119 197.009 188.092C197.364 192.018 199.128 194.12 203.261 195.369C212.129 198.048 200.938 223.244 207.114 232.728C194.996 229.537 179.656 245.492 155.599 236.926C161.088 228.187 162.225 198.443 170.261 196.403C178.106 194.413 179.438 189.509 179.656 182.907C180.258 164.745 178.721 146.951 169.94 130.613C163.7 119.006 161.093 118.901 153.275 129.654C150.804 133.053 148.142 135.995 144.184 133.101C139.373 129.583 133.799 128.74 128.484 126.899C123.482 125.167 121.42 122.108 123.75 116.698C125.038 113.708 125.592 110.4 126.754 106.245C122.318 108.857 120.124 112.389 117.404 115.312C115.186 117.693 113.099 118.137 110.598 115.848C109.458 114.806 108.188 113.903 106.951 112.971C100.536 108.14 93.8616 103.416 100.357 93.4707C97.1531 94.7437 95.8186 97.5973 92.283 98.3458C86.9998 92.8636 82.7755 86.3288 79.0781 78.4522C94.6456 71.5336 110.26 70.666 126.029 74.0837C142.358 77.6226 155.496 86.6336 165.994 99.7245C176.071 112.292 182.208 126.867 188.007 143.492C192.807 130.043 197.581 118.485 204.224 107.77C222.923 77.6149 257.434 64.9138 291.223 75.964C293.086 76.5732 295.157 76.8416 296.701 79.5367C293.44 86.2528 289.159 92.7313 284.029 98.2274C280.159 98.0901 279.253 94.4367 275.319 93.3158C283.147 106.545 271.678 110.112 264.786 116.46Z" fill="#22B123"/>
<path d="M264.786 116.46C261.548 118.616 259.942 116.498 258.27 114.734C255.702 112.025 253.183 109.269 249.413 106.997C250.225 109.764 251.018 112.537 251.853 115.298C254.292 123.365 249.384 129.526 240.81 128.565C238.698 128.328 238.348 128.452 237.028 130.174C233.064 135.347 226.935 134.911 222.978 129.727C214.8 119.015 212.496 118.976 206.309 130.573C196.684 148.614 195.206 168.119 197.009 188.092C197.363 192.018 199.128 194.12 203.261 195.369C212.129 198.048 200.938 223.244 207.114 232.728C200.987 231.114 194.037 234.395 185.554 236.926L188.007 143.492C192.807 130.043 197.581 118.485 204.224 107.77C222.923 77.6149 257.434 64.9138 291.223 75.964C293.086 76.5732 295.157 76.8416 296.701 79.5367C293.44 86.2528 289.159 92.7313 284.029 98.2274C280.159 98.0901 279.253 94.4367 275.319 93.3158C283.147 106.545 271.677 110.112 264.786 116.46Z" fill="#38B939"/>
</g>
<path d="M251.865 240.996C250.042 248.177 245.97 267.453 225.393 287.351C206.894 305.24 180.134 307.42 157.169 294.161C153.342 292.098 147.159 288.857 143.332 286.795L138.326 283.554L133.91 280.312C193.909 305.772 243.07 274.193 248.057 216.101C249.064 214.925 250.273 212.239 250.742 209.551C252.42 210.558 253.362 213.461 253.521 214.837C253.763 216.94 253.688 233.815 251.865 240.996Z" fill="#FECE2E"/>
<path d="M233.874 252.151C234.033 251.286 233.643 250.378 232.838 249.916C231.818 249.333 230.518 249.687 229.935 250.707C226.893 256.03 223.461 260.65 219.737 264.438C210.055 274.287 197.954 279.275 181.654 280.135C180.481 280.197 179.58 281.2 179.642 282.373C179.704 283.547 180.705 284.449 181.878 284.387C190.344 283.941 197.667 282.439 204.264 279.796C211.306 276.975 217.36 272.928 222.77 267.425C226.751 263.376 230.404 258.463 233.628 252.822C233.751 252.607 233.832 252.38 233.874 252.151Z" fill="#FFBC85"/>
<path fill-rule="evenodd" clip-rule="evenodd" d="M238.492 212.112C239.845 209.875 242.027 207.951 245.875 207.914C248.202 207.893 249.048 208.288 250.741 209.593C248.586 221.944 238.698 219.395 236.313 218.947C236.814 216.479 237.253 214.142 238.492 212.112Z" fill="#CE9875"/>
<path d="M263.421 211.982C265.77 212.318 266.649 213.852 267.784 215.509C269.574 218.123 270.473 221.569 270.651 224.791C271.318 236.833 269.56 248.663 264.498 259.618C262.389 264.181 259.022 268.641 255.134 271.797C247.342 278.124 238.797 283.521 230.123 289.239C237.195 282.969 251.339 270.294 251.339 269.757C261.944 256.321 270.301 223.615 263.421 211.982Z" fill="#FECE2E"/>
<path d="M262.729 236.48C262.69 235.934 262.415 235.441 262.019 235.278C261.517 235.07 261.011 235.47 260.89 236.17C260.255 239.82 259.37 243.101 258.26 245.922L256.551 250.103C255.183 253.189 254.24 255.961 252.541 258.791C252.215 259.334 252.276 260.17 252.676 260.658C252.993 261.043 253.427 261.097 253.756 260.835C253.843 260.765 253.923 260.673 253.992 260.559C255.792 257.56 256.84 254.796 258.223 251.602L259.905 247.293C260.981 244.029 262.034 240.789 262.707 236.92C262.732 236.773 262.739 236.624 262.729 236.48Z" fill="#FFBC85"/>
<path d="M266.777 214.165C265.536 221.227 259.902 220.266 258.722 220.044C258.754 219.649 258.814 219.022 258.89 218.532C259.215 216.454 260.076 213.653 260.904 212.99C264.26 210.302 266.471 213.495 266.777 214.165Z" fill="#CE9875"/>
<path d="M280.501 229.453C280.45 229.072 280.253 228.735 279.996 228.633C279.67 228.505 279.371 228.802 279.329 229.298C279.108 231.882 278.712 234.216 278.151 236.234L277.28 239.227C276.571 241.44 276.112 243.418 275.182 245.463C275.004 245.855 275.083 246.44 275.358 246.769C275.576 247.029 275.852 247.052 276.046 246.857C276.097 246.805 276.143 246.738 276.181 246.656C277.167 244.488 277.691 242.513 278.405 240.223L279.252 237.141C279.77 234.813 280.274 232.502 280.509 229.763C280.518 229.659 280.514 229.554 280.501 229.453Z" fill="#FFBC85"/>
<path d="M270.819 258.954C271.305 258.549 272.441 257.599 273.825 256.44C277.372 252.698 281.998 249.688 283.631 245.506C285.666 240.29 285.655 234.113 285.733 228.34C285.792 223.892 284.414 219.423 280.399 216.698C282.799 221.085 284.396 240.869 270.811 258.961L270.819 258.954Z" fill="#FECE2E"/>
<path d="M282.215 218.196C281.121 224.419 275.535 223.598 274.496 223.403C274.524 223.054 274.261 221.651 274.328 221.219C274.16 219.204 274.999 217.02 275.67 216.517C278.19 214.625 280.033 216.349 280.946 217.112C281.208 217.188 282.186 218.111 282.215 218.196Z" fill="#CE9875"/>
<g opacity="0.83">
<path d="M35.7719 81C34.7715 81 33.8121 80.5996 33.1048 79.8869C32.3974 79.1742 32 78.2075 32 77.1996V31.9497C32 27.4588 33.7689 23.1514 36.9183 19.9734C40.0677 16.7954 44.3401 15.0067 48.7974 15H97.2281C97.7235 15 98.2139 15.0983 98.6716 15.2893C99.1292 15.4803 99.545 15.7602 99.8952 16.1131C100.245 16.466 100.523 16.885 100.713 17.346C100.902 17.8071 101 18.3013 101 18.8004C101 19.2995 100.902 19.7936 100.713 20.2547C100.523 20.7158 100.245 21.1348 99.8952 21.4877C99.545 21.8406 99.1292 22.1205 98.6716 22.3115C98.2139 22.5025 97.7235 22.6008 97.2281 22.6008H48.7974C46.3408 22.6075 43.9872 23.5954 42.2525 25.348C40.5179 27.1005 39.5437 29.4746 39.5437 31.9497V77.1996C39.5437 78.2075 39.1463 79.1742 38.439 79.8869C37.7316 80.5996 36.7722 81 35.7719 81Z" fill="#22B123"/>
<path d="M344.228 81C345.228 81 346.188 80.5996 346.895 79.8869C347.603 79.1742 348 78.2075 348 77.1996V31.9497C348 27.4588 346.231 23.1514 343.082 19.9734C339.932 16.7954 335.66 15.0067 331.203 15H282.772C282.277 15 281.786 15.0983 281.328 15.2893C280.871 15.4803 280.455 15.7602 280.105 16.1131C279.755 16.466 279.477 16.885 279.287 17.346C279.098 17.8071 279 18.3013 279 18.8004C279 19.2995 279.098 19.7936 279.287 20.2547C279.477 20.7158 279.755 21.1348 280.105 21.4877C280.455 21.8406 280.871 22.1205 281.328 22.3115C281.786 22.5025 282.277 22.6008 282.772 22.6008H331.203C333.659 22.6075 336.013 23.5954 337.747 25.348C339.482 27.1005 340.456 29.4746 340.456 31.9497V77.1996C340.456 78.2075 340.854 79.1742 341.561 79.8869C342.268 80.5996 343.228 81 344.228 81Z" fill="#22B123"/>
<path d="M344.228 268C345.228 268 346.188 268.4 346.895 269.113C347.603 269.826 348 270.792 348 271.8V317.05C348 321.541 346.231 325.849 343.082 329.027C339.932 332.205 335.66 333.993 331.203 334H282.772C282.277 334 281.786 333.902 281.328 333.711C280.871 333.52 280.455 333.24 280.105 332.887C279.755 332.534 279.477 332.115 279.287 331.654C279.098 331.193 279 330.699 279 330.2C279 329.701 279.098 329.206 279.287 328.745C279.477 328.284 279.755 327.865 280.105 327.512C280.455 327.159 280.871 326.88 281.328 326.689C281.786 326.498 282.277 326.399 282.772 326.399H331.203C333.659 326.393 336.013 325.405 337.747 323.652C339.482 321.9 340.456 319.525 340.456 317.05V271.8C340.456 270.792 340.854 269.826 341.561 269.113C342.268 268.4 343.228 268 344.228 268Z" fill="#22B123"/>
<path d="M35.7719 268C34.7715 268 33.8121 268.4 33.1048 269.113C32.3974 269.826 32 270.792 32 271.8V317.05C32 321.541 33.7689 325.849 36.9183 329.027C40.0677 332.205 44.3401 333.993 48.7974 334H97.2281C97.7235 334 98.2139 333.902 98.6716 333.711C99.1292 333.52 99.545 333.24 99.8952 332.887C100.245 332.534 100.523 332.115 100.713 331.654C100.902 331.193 101 330.699 101 330.2C101 329.701 100.902 329.206 100.713 328.745C100.523 328.284 100.245 327.865 99.8952 327.512C99.545 327.159 99.1292 326.88 98.6716 326.689C98.2139 326.498 97.7235 326.399 97.2281 326.399H48.7974C46.3408 326.393 43.9872 325.405 42.2525 323.652C40.5179 321.9 39.5437 319.525 39.5437 317.05V271.8C39.5437 270.792 39.1463 269.826 38.439 269.113C37.7316 268.4 36.7722 268 35.7719 268Z" fill="#22B123"/>
</g>
<defs>
<clipPath id="clip0_28_614">
<rect width="217.805" height="167.614" fill="white" transform="translate(78.9141 72)"/>
</clipPath>
</defs>
</svg>
