<svg width="660" height="660" viewBox="0 0 660 660" fill="none" xmlns="http://www.w3.org/2000/svg">
<path d="M647.458 289.18C646.703 232.74 626.028 178.257 594.537 136.198C576.114 111.593 553.946 90.0385 529.745 73.2547C504.628 55.8347 477.321 36.3277 447.015 33.334C439.536 32.5948 431.866 32.9485 424.484 35.3087C396.222 44.3441 452.147 76.5468 459.457 81.2566C381.287 45.4014 300.378 8.97072 214.931 12.4067C198.455 13.0693 181.365 15.448 166.879 25.2542C152.395 35.0605 141.184 53.9748 143.341 72.7228C145.125 88.2209 154.883 105.534 145.73 117.648C143.113 121.111 139.402 123.159 135.76 124.937C117.068 134.058 96.8891 138.843 79.1826 150.447C51.7623 168.417 33.0486 201.436 24.3749 236.178C15.7012 270.921 16.1183 307.425 19.5226 342.766C25.9299 409.277 43.3539 475.259 78.6137 526.982C128.98 600.863 211.552 638.496 294.261 644.697C394.343 652.201 502.851 612.896 569.031 521.924C578.846 508.432 587.846 493.483 591.415 476.562C594.984 459.641 592.157 440.36 581.169 429.247C578.209 426.252 574.398 423.077 574.719 418.429C575.153 412.141 582.198 410.014 587.567 408.694C622.796 400.033 642.944 354.202 646.577 312.985C647.279 305.031 647.564 297.087 647.458 289.18Z" fill="#88D588"/>
<path opacity="0.7" d="M647.458 289.18C646.703 232.74 626.028 178.257 594.537 136.198C576.114 111.593 553.946 90.0385 529.745 73.2547C504.628 55.8347 477.321 36.3277 447.015 33.334C439.536 32.5948 431.866 32.9485 424.484 35.3087C396.222 44.3441 452.147 76.5468 459.457 81.2566C381.287 45.4014 300.378 8.97072 214.931 12.4067C198.455 13.0693 181.365 15.448 166.879 25.2542C152.395 35.0605 141.184 53.9748 143.341 72.7228C145.125 88.2209 154.883 105.534 145.73 117.648C143.113 121.111 139.402 123.159 135.76 124.937C117.068 134.058 96.8891 138.843 79.1826 150.447C51.7623 168.417 33.0486 201.436 24.3749 236.178C15.7012 270.921 16.1183 307.425 19.5226 342.766C25.9299 409.277 43.3539 475.259 78.6137 526.982C128.98 600.863 211.552 638.496 294.261 644.697C394.343 652.201 502.851 612.896 569.031 521.924C578.846 508.432 587.846 493.483 591.415 476.562C594.984 459.641 592.157 440.36 581.169 429.247C578.209 426.252 574.398 423.077 574.719 418.429C575.153 412.141 582.198 410.014 587.567 408.694C622.796 400.033 642.944 354.202 646.577 312.985C647.279 305.031 647.564 297.087 647.458 289.18Z" fill="white"/>
<path d="M567.448 98.5868C567.448 98.5868 538.048 51.8602 516.424 54.1042C494.8 56.3482 488.949 78.9624 485.024 85.5043C481.098 92.0462 464.091 75.038 452.315 78.9624C440.541 82.8881 443.157 94.6625 435.307 98.5868C427.457 102.511 418.299 93.353 407.833 95.9706C397.366 98.5868 392.133 110.363 392.133 110.363C392.133 110.363 379.05 105.129 371.2 107.746C363.35 110.364 354.192 114.288 354.192 114.288H614.546C614.546 114.288 611.93 109.054 596.23 101.206C580.532 93.353 567.448 98.5868 567.448 98.5868Z" stroke="#263238" stroke-miterlimit="10" stroke-linecap="round" stroke-linejoin="round"/>
<path d="M503.996 223.422C503.996 223.422 491.339 203.305 482.03 204.271C472.721 205.238 470.202 214.973 468.512 217.789C466.822 220.605 459.5 213.284 454.43 214.974C449.361 216.663 450.487 221.732 447.108 223.422C443.729 225.111 439.786 221.169 435.28 222.296C430.773 223.422 428.521 228.492 428.521 228.492C428.521 228.492 422.889 226.239 419.51 227.366C416.13 228.492 412.188 230.182 412.188 230.182H524.273C524.273 230.182 523.147 227.928 516.387 224.549C509.629 221.169 503.996 223.422 503.996 223.422Z" stroke="#263238" stroke-miterlimit="10" stroke-linecap="round" stroke-linejoin="round"/>
<path d="M137.039 247.507C137.039 247.507 124.381 227.39 115.073 228.356C105.764 229.322 103.244 239.057 101.554 241.874C99.8648 244.69 92.5427 237.369 87.4726 239.059C82.4038 240.748 83.5298 245.817 80.1506 247.507C76.7714 249.196 72.8285 245.253 68.3221 246.381C63.8156 247.507 61.5637 252.577 61.5637 252.577C61.5637 252.577 55.9312 250.323 52.552 251.451C49.1728 252.577 45.23 254.268 45.23 254.268H157.315C157.315 254.268 156.189 252.014 149.429 248.635C142.671 245.253 137.039 247.507 137.039 247.507Z" stroke="#263238" stroke-miterlimit="10" stroke-linecap="round" stroke-linejoin="round"/>
<path d="M222.626 153.201C222.626 153.201 201.805 120.109 186.491 121.699C171.178 123.288 167.034 139.302 164.255 143.935C161.475 148.567 149.43 136.524 141.091 139.302C132.753 142.082 134.606 150.421 129.046 153.201C123.488 155.98 117.001 149.494 109.589 151.347C102.178 153.201 98.471 161.539 98.471 161.539C98.471 161.539 89.2059 157.832 83.6461 159.686C78.0876 161.539 71.6011 164.319 71.6011 164.319H255.98C255.98 164.319 254.127 160.612 243.008 155.054C231.891 149.494 222.626 153.201 222.626 153.201Z" stroke="#263238" stroke-miterlimit="10" stroke-linecap="round" stroke-linejoin="round"/>
<path opacity="0.3" d="M245.067 377.396C245.067 377.396 253.619 376.649 266.768 378.988C272.46 379.797 279.048 381.002 286.275 382.808C310.407 388.835 334.786 399.324 353.44 427.603C360.414 438.175 365.133 447.99 371.359 454.894L371.256 451.761C368.43 441.838 364.605 428.872 360.757 417.24C358.612 415.297 357.227 413.006 356.81 410.709C356.521 409.121 354.737 402.655 352.862 396.028C352.844 395.985 352.824 395.941 352.804 395.898C351.231 392.425 349.405 388.847 347.355 385.251C345.421 387.465 341.851 391.619 340.73 393.367C339.169 395.803 337.606 398.239 337.343 398.956C337.08 399.671 330.842 397.144 330.842 397.144L328.347 396.133L329.804 392.942L322.195 394.545C322.195 394.545 313.126 388.927 311.917 388.055C310.709 387.182 307.123 384.195 307.123 384.195L308.724 381.392L302.913 383.56C302.913 383.56 298.986 382.025 297.529 380.01C296.071 377.994 292.662 373.353 286.416 369.153C280.171 364.952 277.688 362.084 277.688 362.084L273.34 357.529L271.142 353.76L272.251 350.345L268.378 351.791L262.396 346.875L262.651 344.484L257.917 345.28L250.128 338.126L253.671 325.86C253.671 325.86 260.817 323.239 280.567 328.549C300.317 333.86 321.31 346.982 332.092 358.372C338.783 365.442 344.767 375.742 350.361 387.243C349.098 382.842 348.155 379.602 348.155 379.602L352.003 372.867L344.948 375.112L343.344 363.888L348.475 358.437L342.702 359.72C342.702 359.72 343.023 340.478 342.381 336.31C341.74 332.141 340.778 329.896 341.098 321.878C341.419 313.86 345.908 296.864 345.908 296.864L350.398 293.016L345.267 292.695L346.229 283.716L352.322 276.66C352.322 276.66 352.322 270.888 354.247 264.474C356.171 258.06 368.037 249.722 368.037 249.722C368.037 249.722 376.375 257.098 377.657 259.342C378.94 261.587 377.016 265.435 377.978 270.566C378.94 275.697 387.598 279.546 389.202 284.997C390.806 290.449 391.447 304.56 391.447 304.56L385.996 307.445L393.051 309.049C393.051 309.049 393.051 310.653 394.013 313.538C394.517 315.05 394.405 321.221 394.185 326.757C396.472 327.219 398.983 327.802 401.75 328.545C417.145 332.685 433.294 341.571 444.775 350.683C450.907 347.366 457.413 344.457 463.899 342.288C463.841 339.649 463.738 337.429 463.565 336.306C462.924 332.137 461.962 329.892 462.282 321.874C462.603 313.856 467.092 296.86 467.092 296.86L471.582 293.012L466.451 292.692L467.413 283.712L473.506 276.656C473.506 276.656 473.506 270.884 475.431 264.47C477.355 258.056 489.221 249.718 489.221 249.718C489.221 249.718 497.559 257.094 498.841 259.338C500.124 261.583 498.2 265.431 499.162 270.562C500.124 275.693 508.782 279.542 510.386 284.993C511.99 290.445 512.631 304.556 512.631 304.556L507.179 307.441L514.235 309.045C514.235 309.045 514.235 310.649 515.197 313.534C516.159 316.421 514.876 336.303 514.876 336.303L508.783 338.869L516.48 341.755C516.159 345.923 515.197 358.751 515.197 358.751L504.067 355.489L512.953 364.844C512.953 364.844 512.953 367.73 512.953 370.937C512.953 374.145 508.785 386.971 507.502 389.858C506.219 392.744 503.333 401.724 503.654 408.137C503.923 413.516 497.669 419.666 495.637 421.517C496.524 433.188 497.566 445.872 498.584 457.834C501.511 447.538 506.232 431.965 510.795 421.318C519.231 401.634 528.175 381.865 538.956 370.475C549.736 359.085 570.731 345.963 590.481 340.652C610.231 335.342 617.377 337.964 617.377 337.964L620.92 350.23L613.131 357.385L608.397 356.589L608.653 358.979L602.67 363.896L598.795 362.451L599.904 365.866L597.704 369.634L593.356 374.19C593.356 374.19 590.873 377.058 584.628 381.26C578.383 385.46 574.973 390.101 573.515 392.117C572.056 394.132 568.129 395.667 568.129 395.667L562.319 393.499L563.92 396.302C563.92 396.302 560.335 399.289 559.125 400.162C557.918 401.035 548.848 406.652 548.848 406.652L541.238 405.049L542.695 408.24L540.201 409.251C540.201 409.251 533.962 411.778 533.7 411.063C533.437 410.347 531.875 407.91 530.312 405.474C529.192 403.726 525.621 399.572 523.687 397.358C521.637 400.954 519.811 404.532 518.238 408.005C512.221 421.293 504.058 448.783 499.258 465.729C499.311 466.335 499.362 466.937 499.414 467.537C503.387 459.657 509.202 450.041 517.602 439.712C538.978 413.428 560.637 400.943 584.769 394.916C591.996 393.111 598.584 391.905 604.276 391.096C617.423 388.757 625.977 389.504 625.977 389.504C625.977 389.504 626.282 393.767 626.038 395.46C625.793 397.154 619.795 407.004 619.795 407.004L605.637 413.518L602.256 408.192L604.184 415.209L586.692 426.86L578.122 412.578L583.544 429.517L573.921 435.735L570.961 433.493L571.924 437.002L567.748 439.597L556.76 423.498L566.656 442.378L560.061 444.971L556.26 438.375L558.971 446.541L538.214 459.277L535.376 454.98C535.376 454.98 535.128 460.907 534.643 461.269C534.159 461.632 522.179 466.818 522.179 466.818L502.739 467.023C502.739 467.023 501.397 470.061 499.954 473.753C501.148 487.399 502.173 498.651 502.676 504.13C504.355 501.578 505.498 499.848 505.498 499.848C505.498 499.848 505.498 508.564 505.914 513.546C506.328 518.526 507.574 573.317 509.235 581.618C510.895 589.92 514.215 600.296 514.215 600.296H481.839C481.839 600.296 485.991 591.579 486.82 589.09C487.65 586.599 488.48 526.829 488.895 525.583C489.055 525.104 491.557 521.172 494.572 516.521L492.811 463.048C491.184 458.755 489.486 454.913 489.486 454.913C489.486 454.913 488.701 454.052 479.848 445.199C478.549 443.9 478.22 442.556 478.373 441.445L470.047 454.71C470.047 454.71 458.066 449.523 457.582 449.16C457.097 448.797 456.849 442.872 456.849 442.872L454.011 447.169L445.125 441.716L445.472 442.378L438.877 444.971L435.076 438.375L437.787 446.541L417.029 459.277L414.192 454.98C414.192 454.98 413.943 460.907 413.459 461.269C412.975 461.632 400.995 466.818 400.995 466.818L381.555 467.023C381.555 467.023 380.213 470.061 378.77 473.753C379.964 487.399 380.989 498.651 381.492 504.13C383.171 501.578 384.315 499.848 384.315 499.848C384.315 499.848 384.315 508.564 384.73 513.546C385.144 518.526 386.39 573.317 388.051 581.618C389.711 589.92 393.031 600.296 393.031 600.296H360.656C360.656 600.296 364.807 591.579 365.636 589.09C366.466 586.599 367.296 526.829 367.711 525.583C367.871 525.104 370.373 521.172 373.388 516.521L371.627 463.048C370 458.755 368.302 454.913 368.302 454.913C368.302 454.913 367.517 454.052 358.664 445.199C357.365 443.9 357.036 442.556 357.189 441.445L348.863 454.71C348.863 454.71 336.882 449.523 336.398 449.16C335.913 448.797 335.665 442.872 335.665 442.872L332.829 447.169L312.07 434.433L314.782 426.266L310.98 432.862L304.385 430.27L314.281 411.39L303.294 427.489L299.118 424.893L300.082 421.385L297.121 423.626L287.498 417.409L292.921 400.47L284.35 414.752L266.859 403.1L268.786 396.083L265.406 401.409L251.247 394.895C251.247 394.895 245.249 385.045 245.005 383.352C244.762 381.658 245.067 377.396 245.067 377.396ZM364.297 419.711C366.716 426.544 369.01 433.922 370.879 440.262L370.27 421.774C368.696 421.494 366.763 420.976 364.828 420.008C364.643 419.916 364.478 419.809 364.297 419.711ZM398.872 362.084L394.524 357.529L394.151 356.89C394.065 358.037 394.011 358.758 394.011 358.758L382.88 355.496L391.767 364.851C391.767 364.851 391.767 367.736 391.767 370.944C391.767 372.379 390.931 375.741 389.894 379.276C395.125 380.074 401.037 381.204 407.457 382.808C407.758 382.883 408.061 382.962 408.363 383.039C410.256 379.996 412.204 377.179 414.213 374.633C412.497 372.892 410.318 370.981 407.601 369.154C401.355 364.952 398.872 362.084 398.872 362.084ZM447.884 399.957C449.82 399.184 451.771 398.47 453.737 397.804C452.764 397.444 452.026 397.146 452.026 397.146L449.531 396.135L450.65 393.682C448.969 394.875 446.944 395.67 446.944 395.67L443.734 394.471L443.379 394.547C443.379 394.547 443.062 394.35 442.54 394.027L441.135 393.503L442.736 396.306C442.736 396.306 442.642 396.384 442.493 396.507C444.308 397.587 446.106 398.734 447.884 399.957ZM485.48 419.711C487.898 426.544 490.192 433.922 492.062 440.262L491.453 421.774C489.877 421.494 487.946 420.976 486.011 420.008C485.826 419.916 485.66 419.809 485.48 419.711ZM472.808 373.526L472.17 374.194C472.17 374.194 470.681 375.908 467.131 378.622C468.63 381.393 470.099 384.277 471.542 387.243C470.279 382.842 469.336 379.602 469.336 379.602L472.808 373.526ZM468.539 385.251C466.605 387.465 463.035 391.619 461.914 393.367C461.386 394.189 460.863 395.006 460.385 395.762C461.448 395.468 462.512 395.183 463.584 394.916C466.711 394.135 469.709 393.472 472.574 392.899C471.349 390.381 470.004 387.821 468.539 385.251ZM492.543 454.894L492.44 451.761C489.614 441.838 485.789 428.872 481.941 417.24C481.657 416.984 481.391 416.72 481.133 416.452L471.38 422.949C472.478 424.446 473.562 425.992 474.624 427.602C481.598 438.175 486.317 447.99 492.543 454.894ZM378.23 467.54C382.203 459.66 388.018 450.043 396.418 439.714C402.309 432.47 408.223 426.279 414.203 420.978L408.681 417.41L411.369 409.017C411.008 408.43 410.59 407.766 410.145 407.068L405.534 414.753L396.68 408.854C390.701 422.43 382.775 449.134 378.074 465.732C378.126 466.338 378.179 466.939 378.23 467.54ZM377.397 457.841C380.325 447.545 385.045 431.971 389.608 421.324C391.521 416.863 393.461 412.402 395.441 408.031L388.043 403.103L389.97 396.086L386.59 401.412L383.291 399.894C382.715 402.69 382.339 405.616 382.466 408.145C382.735 413.524 376.481 419.674 374.45 421.525C375.337 433.195 376.379 445.878 377.397 457.841Z" fill="#26333A"/>
<path opacity="0.3" d="M238.115 409.447C238.115 409.447 230.823 408.809 219.612 410.804C214.759 411.493 209.142 412.521 202.98 414.06C182.404 419.199 163.939 429.843 145.713 452.254C138.713 460.861 133.816 468.892 130.434 475.523L130.523 472.852C132.933 464.392 136.194 453.336 139.475 443.42C141.305 441.763 142.485 439.809 142.84 437.851C143.087 436.496 144.607 430.984 146.206 425.334C146.222 425.299 146.239 425.26 146.255 425.224C147.596 422.263 149.152 419.211 150.901 416.146C152.55 418.033 155.595 421.575 156.551 423.065C157.882 425.143 159.214 427.219 159.437 427.831C159.662 428.44 164.98 426.287 164.98 426.287L167.108 425.425L165.866 422.705L172.354 424.072C172.354 424.072 180.086 419.282 181.116 418.538C182.147 417.793 185.204 415.247 185.204 415.247L183.839 412.856L188.793 414.704C188.793 414.704 192.14 413.395 193.384 411.678C194.627 409.959 197.534 406.002 202.859 402.421C208.184 398.839 210.301 396.393 210.301 396.393L214.008 392.509L215.885 389.296L214.939 386.384L218.242 387.617L223.343 383.424L223.125 381.386L227.161 382.065L233.802 375.965L230.782 365.507C230.782 365.507 224.689 363.271 207.85 367.8C191.01 372.327 173.111 383.515 163.919 393.227C158.214 399.255 153.112 408.037 148.343 417.843C149.42 414.092 150.224 411.329 150.224 411.329L146.942 405.587L152.958 407.501L154.325 397.931L149.951 393.283L154.873 394.378C154.873 394.378 154.6 377.973 155.146 374.418C155.693 370.863 156.514 368.949 156.24 362.114C155.967 355.279 152.139 340.787 152.139 340.787L148.311 337.506L152.686 337.232L151.866 329.576L146.67 323.561C146.67 323.561 146.67 318.639 145.03 313.171C143.389 307.703 133.272 300.593 133.272 300.593C133.272 300.593 126.163 306.882 125.07 308.796C123.977 310.71 125.616 313.991 124.797 318.366C123.977 322.74 116.594 326.022 115.227 330.669C113.859 335.317 113.313 347.349 113.313 347.349L117.96 349.809L111.945 351.177C111.945 351.177 111.945 352.544 111.125 355.005C110.306 357.465 111.399 374.418 111.399 374.418L116.594 376.605L110.032 379.066C110.306 382.62 111.127 393.557 111.127 393.557L120.616 390.775L113.041 398.752C113.041 398.752 113.041 401.213 113.041 403.948C113.041 406.681 116.595 417.619 117.688 420.079C118.783 422.54 121.243 430.196 120.97 435.665C120.74 440.25 126.073 445.495 127.805 447.072C127.049 457.024 126.16 467.837 125.293 478.037C122.797 469.259 118.772 455.98 114.881 446.902C107.688 430.119 100.062 413.264 90.87 403.553C81.6775 393.842 63.7783 382.654 46.9391 378.126C30.0999 373.598 24.0067 375.834 24.0067 375.834L20.9866 386.293L27.6275 392.394L31.6641 391.715L31.4462 393.753L36.5467 397.946L39.8494 396.713L38.9042 399.623L40.7813 402.836L44.4878 406.721C44.4878 406.721 46.6051 409.167 51.93 412.748C57.2549 416.329 60.1615 420.287 61.405 422.005C62.6484 423.724 65.9959 425.032 65.9959 425.032L70.9499 423.183L69.585 425.573C69.585 425.573 72.6421 428.12 73.673 428.864C74.704 429.609 82.4352 434.399 82.4352 434.399L88.923 433.031L87.6809 435.752L89.8087 436.614C89.8087 436.614 95.127 438.768 95.3514 438.157C95.5758 437.547 96.9064 435.469 98.2382 433.392C99.1939 431.901 102.238 428.36 103.888 426.472C105.636 429.539 107.193 432.589 108.534 435.55C113.665 446.879 120.625 470.317 124.717 484.766C124.673 485.284 124.629 485.796 124.584 486.308C121.196 479.589 116.238 471.389 109.077 462.583C90.8515 440.172 72.3847 429.529 51.8099 424.389C45.6481 422.85 40.0315 421.822 35.1779 421.133C23.9671 419.138 16.6755 419.776 16.6755 419.776C16.6755 419.776 16.4154 423.411 16.624 424.854C16.8325 426.298 21.9462 434.696 21.9462 434.696L34.0176 440.25L36.8992 435.71L35.2558 441.693L50.1691 451.627L57.4766 439.45L52.8527 453.893L61.0565 459.194L63.5803 457.282L62.7593 460.273L66.3193 462.487L75.6874 448.76L67.2499 464.858L72.8731 467.069L76.115 461.444L73.8024 468.407L91.501 479.266L93.9205 475.601C93.9205 475.601 94.133 480.654 94.5462 480.963C94.9594 481.272 105.174 485.694 105.174 485.694L113.562 472.33C118.162 481.76 121.747 485.868 121.747 485.868C121.747 485.868 122.892 488.459 124.122 491.606C123.103 503.242 122.231 512.835 121.802 517.506C120.369 515.329 119.395 513.855 119.395 513.855C119.395 513.855 119.395 521.287 119.041 525.533C118.688 529.779 117.626 576.494 116.21 583.572C114.795 590.65 111.964 599.498 111.964 599.498H139.567C139.567 599.498 136.029 592.066 135.321 589.942C134.613 587.818 133.905 536.857 133.551 535.796C133.415 535.387 131.28 532.034 128.71 528.07L129.005 519.13C130.098 516.282 131.757 512.837 134.273 509.329C140.37 500.825 146.788 497.455 146.788 497.455C146.788 497.455 146.788 497.455 148.393 500.985C149.997 504.515 150.799 511.093 150.799 511.093L155.613 510.934L154.972 505.318L156.576 512.057C156.576 512.057 161.39 511.416 162.191 511.416C162.993 511.416 170.855 510.132 170.855 510.132L171.497 506.282L173.262 509.973L179.841 509.652L178.076 500.025C180.482 502.272 182.568 508.529 182.568 508.529L188.504 509.652V503.712L190.75 509.969C190.75 509.969 195.083 509.007 195.563 508.686C196.045 508.365 196.686 507.403 196.686 507.403L206.955 506.279C206.955 506.279 203.104 495.209 198.131 492.641C193.157 490.074 185.616 485.903 173.421 485.421C161.227 484.939 155.291 487.827 143.418 494.566C136.983 498.218 132.296 504.083 129.348 508.691L130.211 482.476C131.599 478.815 133.047 475.539 133.047 475.539C133.047 475.539 136.632 471.431 141.232 462.001C144.552 455.195 152.308 446.658 160.575 439.546C146.523 453.796 147.072 452.822 141.232 462.001L149.621 475.365C149.621 475.365 159.835 470.943 160.248 470.634C160.661 470.325 160.874 465.272 160.874 465.272L163.293 468.937L180.992 458.078L178.679 451.115L181.921 456.74L187.544 454.529L179.107 438.431L188.475 452.158L192.035 449.944L191.214 446.953L193.738 448.865L201.941 443.564L197.317 429.121L204.625 441.298L219.538 431.364L217.895 425.381L220.776 429.921L232.848 424.367C232.848 424.367 237.963 415.968 238.17 414.525C238.375 413.081 238.115 409.447 238.115 409.447ZM94.2149 449.871C102.482 456.983 110.237 465.52 113.557 472.326C107.718 463.147 108.268 464.121 94.2149 449.871ZM136.458 445.526C134.396 451.352 132.439 457.643 130.846 463.048L131.365 447.286C132.707 447.048 134.356 446.605 136.005 445.78C136.162 445.701 136.303 445.608 136.458 445.526Z" fill="#26333A"/>
<path d="M515.564 327.485C515.564 327.485 523.554 336.473 525.522 339.542C527.49 342.613 529.458 345.683 529.79 346.584C530.12 347.486 537.982 344.304 537.982 344.304L541.126 343.03L539.29 339.008L548.878 341.029C548.878 341.029 560.307 333.949 561.829 332.849C563.352 331.749 567.87 327.986 567.87 327.986L565.852 324.452L573.174 327.184C573.174 327.184 578.123 325.249 579.96 322.71C581.798 320.17 586.093 314.321 593.963 309.028C601.833 303.735 604.961 300.119 604.961 300.119L610.44 294.378L613.214 289.63L611.817 285.327L616.698 287.149L624.238 280.954L623.916 277.942L629.881 278.945L639.697 269.929L635.233 254.472C635.233 254.472 618.95 253.4 594.83 262.305C570.71 271.21 555.226 282.003 554.35 282.566C553.473 283.128 532.906 303.369 529.256 308.679C525.604 313.992 515.564 327.485 515.564 327.485Z" fill="#38B939" stroke="#26333A" stroke-miterlimit="10" stroke-linecap="round" stroke-linejoin="round"/>
<path d="M594.827 262.308L602.809 273.405" stroke="#26333A" stroke-miterlimit="10" stroke-linecap="round" stroke-linejoin="round"/>
<path d="M591.523 270.863L601.706 285.005" stroke="#26333A" stroke-miterlimit="10" stroke-linecap="round" stroke-linejoin="round"/>
<path d="M553.386 284.546L562.12 293.922" stroke="#26333A" stroke-miterlimit="10" stroke-linecap="round" stroke-linejoin="round"/>
<path d="M563.478 295.651L566.679 299.293" stroke="#26333A" stroke-miterlimit="10" stroke-linecap="round" stroke-linejoin="round"/>
<path d="M565.853 324.453L551.013 310.574" stroke="#26333A" stroke-miterlimit="10" stroke-linecap="round" stroke-linejoin="round"/>
<path d="M530.619 308.302L535.797 312.903" stroke="#26333A" stroke-miterlimit="10" stroke-linecap="round" stroke-linejoin="round"/>
<path d="M536.262 336.988L530.191 330.607" stroke="#26333A" stroke-miterlimit="10" stroke-linecap="round" stroke-linejoin="round"/>
<path d="M620.867 256.01L629.121 269.656" stroke="#26333A" stroke-miterlimit="10" stroke-linecap="round" stroke-linejoin="round"/>
<path d="M481.365 433.64C481.365 433.64 498.899 367.924 510.308 342.731C521.716 317.539 543.467 287.951 571.239 275.113C599.01 262.273 606.342 257.797 635.232 254.475C635.232 254.475 626.226 251.171 601.34 257.862C576.454 264.553 549.999 281.089 536.413 295.442C522.828 309.796 511.558 334.706 500.928 359.51C491.657 381.141 481.867 418.922 481.867 418.922L481.365 433.64Z" fill="#38B939" stroke="#26333A" stroke-miterlimit="10" stroke-linecap="round" stroke-linejoin="round"/>
<path d="M502.876 397.09L515.275 416.841C515.275 416.841 530.37 410.306 530.981 409.849C531.591 409.393 531.905 401.925 531.905 401.925L535.48 407.34L561.637 391.292L558.22 380.999L563.011 389.312L571.322 386.045L558.852 362.254L572.697 382.541L577.959 379.27L576.744 374.848L580.475 377.672L592.6 369.838L585.767 348.492L596.567 366.489L618.607 351.808L616.178 342.965L620.438 349.676L638.279 341.467C638.279 341.467 645.837 329.055 646.145 326.92C646.452 324.787 646.068 319.415 646.068 319.415C646.068 319.415 627.105 317.753 600.805 325.724C574.506 333.695 558.041 336.876 534.313 361.005C510.586 385.135 511.885 382.927 502.876 397.09Z" fill="#38B939" stroke="#26333A" stroke-miterlimit="10" stroke-linecap="round" stroke-linejoin="round"/>
<path d="M530.319 388.74L539.979 404.068" stroke="#26333A" stroke-miterlimit="10" stroke-linecap="round" stroke-linejoin="round"/>
<path d="M527.815 379.669L535.421 391.87" stroke="#26333A" stroke-miterlimit="10" stroke-linecap="round" stroke-linejoin="round"/>
<path d="M558.85 362.254L553.679 353.561" stroke="#26333A" stroke-miterlimit="10" stroke-linecap="round" stroke-linejoin="round"/>
<path d="M570.888 364.859L575.146 372.332" stroke="#26333A" stroke-miterlimit="10" stroke-linecap="round" stroke-linejoin="round"/>
<path d="M605.184 361.089L599.33 350.337" stroke="#26333A" stroke-miterlimit="10" stroke-linecap="round" stroke-linejoin="round"/>
<path d="M592.495 329.754L600.098 344.241" stroke="#26333A" stroke-miterlimit="10" stroke-linecap="round" stroke-linejoin="round"/>
<path d="M599.577 334.258L610.452 353.246" stroke="#26333A" stroke-miterlimit="10" stroke-linecap="round" stroke-linejoin="round"/>
<path d="M623.43 332.686L628.825 345.876" stroke="#26333A" stroke-miterlimit="10" stroke-linecap="round" stroke-linejoin="round"/>
<path d="M626.338 322.326L628.767 331.168" stroke="#26333A" stroke-miterlimit="10" stroke-linecap="round" stroke-linejoin="round"/>
<path d="M507.149 391.608L512.095 398.092" stroke="#26333A" stroke-miterlimit="10" stroke-linecap="round" stroke-linejoin="round"/>
<path d="M594.144 326.235C563.735 333.831 536.442 349.562 509.507 382.684C496.733 398.39 488.693 412.802 483.764 423.621L482.885 440.34C482.949 434.811 490.778 417.099 490.778 417.099C490.778 417.099 496.077 411.027 502.876 397.09C509.674 383.152 529.053 364.276 545.602 352.942C562.152 341.607 573.435 336.591 596.459 328.692C619.482 320.793 646.07 319.416 646.07 319.416C646.07 319.416 624.552 318.64 594.144 326.235Z" fill="#38B939" stroke="#26333A" stroke-miterlimit="10" stroke-linecap="round" stroke-linejoin="round"/>
<path d="M449.293 342.745C449.293 342.745 441.303 351.733 439.335 354.803C437.367 357.873 435.399 360.943 435.068 361.845C434.738 362.747 426.876 359.564 426.876 359.564L423.731 358.29L425.568 354.268L415.979 356.289C415.979 356.289 404.551 349.21 403.029 348.109C401.505 347.01 396.987 343.246 396.987 343.246L399.005 339.713L391.683 342.445C391.683 342.445 386.734 340.51 384.897 337.97C383.06 335.431 378.764 329.582 370.894 324.288C363.025 318.995 359.896 315.38 359.896 315.38L354.417 309.639L351.644 304.891L353.041 300.588L348.16 302.409L340.622 296.215L340.944 293.202L334.979 294.206L325.163 285.19L329.627 269.733C329.627 269.733 345.91 268.661 370.031 277.566C394.152 286.47 409.635 297.264 410.512 297.826C411.389 298.389 431.955 318.63 435.605 323.94C439.253 329.253 449.293 342.745 449.293 342.745Z" fill="#38B939" stroke="#26333A" stroke-miterlimit="10" stroke-linecap="round" stroke-linejoin="round"/>
<path d="M370.03 277.567L362.048 288.664" stroke="#26333A" stroke-miterlimit="10" stroke-linecap="round" stroke-linejoin="round"/>
<path d="M373.333 286.122L363.151 300.264" stroke="#26333A" stroke-miterlimit="10" stroke-linecap="round" stroke-linejoin="round"/>
<path d="M411.47 299.805L402.735 309.181" stroke="#26333A" stroke-miterlimit="10" stroke-linecap="round" stroke-linejoin="round"/>
<path d="M401.38 310.91L398.179 314.552" stroke="#26333A" stroke-miterlimit="10" stroke-linecap="round" stroke-linejoin="round"/>
<path d="M399.004 339.713L413.843 325.834" stroke="#26333A" stroke-miterlimit="10" stroke-linecap="round" stroke-linejoin="round"/>
<path d="M434.238 323.561L429.06 328.163" stroke="#26333A" stroke-miterlimit="10" stroke-linecap="round" stroke-linejoin="round"/>
<path d="M428.594 352.247L434.666 345.868" stroke="#26333A" stroke-miterlimit="10" stroke-linecap="round" stroke-linejoin="round"/>
<path d="M343.99 271.269L335.736 284.915" stroke="#26333A" stroke-miterlimit="10" stroke-linecap="round" stroke-linejoin="round"/>
<path d="M483.492 448.9C483.492 448.9 465.959 383.184 454.549 357.992C443.141 332.8 421.39 303.212 393.618 290.372C365.847 277.533 358.515 273.057 329.625 269.734C329.625 269.734 338.631 266.43 363.517 273.121C388.403 279.812 414.858 296.348 428.444 310.702C442.029 325.055 453.299 349.965 463.929 374.769C473.2 396.4 482.99 434.181 482.99 434.181L483.492 448.9Z" fill="#38B939" stroke="#26333A" stroke-miterlimit="10" stroke-linecap="round" stroke-linejoin="round"/>
<path d="M461.981 412.349L449.582 432.101C449.582 432.101 434.487 425.565 433.876 425.109C433.266 424.652 432.952 417.185 432.952 417.185L429.376 422.599L403.219 406.551L406.636 396.259L401.845 404.571L393.534 401.304L406.004 377.513L392.159 397.8L386.897 394.529L388.111 390.109L384.381 392.932L372.256 385.097L379.089 363.751L368.289 381.748L346.249 367.066L348.678 358.223L344.418 364.934L326.577 356.725C326.577 356.725 319.019 344.313 318.711 342.178C318.404 340.045 318.788 334.673 318.788 334.673C318.788 334.673 337.751 333.011 364.05 340.982C390.35 348.953 406.815 352.134 430.543 376.263C454.271 400.394 452.972 398.186 461.981 412.349Z" fill="#38B939" stroke="#26333A" stroke-miterlimit="10" stroke-linecap="round" stroke-linejoin="round"/>
<path d="M434.539 403.999L424.877 419.327" stroke="#26333A" stroke-miterlimit="10" stroke-linecap="round" stroke-linejoin="round"/>
<path d="M437.043 394.928L429.436 407.129" stroke="#26333A" stroke-miterlimit="10" stroke-linecap="round" stroke-linejoin="round"/>
<path d="M406.007 377.513L411.179 368.82" stroke="#26333A" stroke-miterlimit="10" stroke-linecap="round" stroke-linejoin="round"/>
<path d="M393.97 380.119L389.71 387.592" stroke="#26333A" stroke-miterlimit="10" stroke-linecap="round" stroke-linejoin="round"/>
<path d="M359.672 376.348L365.527 365.596" stroke="#26333A" stroke-miterlimit="10" stroke-linecap="round" stroke-linejoin="round"/>
<path d="M372.362 345.014L364.758 359.501" stroke="#26333A" stroke-miterlimit="10" stroke-linecap="round" stroke-linejoin="round"/>
<path d="M365.281 349.518L354.405 368.506" stroke="#26333A" stroke-miterlimit="10" stroke-linecap="round" stroke-linejoin="round"/>
<path d="M341.426 347.945L336.031 361.135" stroke="#26333A" stroke-miterlimit="10" stroke-linecap="round" stroke-linejoin="round"/>
<path d="M338.518 337.585L336.09 346.427" stroke="#26333A" stroke-miterlimit="10" stroke-linecap="round" stroke-linejoin="round"/>
<path d="M457.707 406.868L452.761 413.351" stroke="#26333A" stroke-miterlimit="10" stroke-linecap="round" stroke-linejoin="round"/>
<path d="M370.714 341.495C401.123 349.09 428.415 364.822 455.351 397.943C468.125 413.65 476.165 428.061 481.093 438.88L481.973 455.599C481.908 450.07 474.079 432.358 474.079 432.358C474.079 432.358 468.781 426.286 461.981 412.349C455.183 398.412 435.804 379.536 419.255 368.201C402.705 356.866 391.422 351.85 368.398 343.951C345.375 336.052 318.788 334.675 318.788 334.675C318.788 334.675 340.305 333.899 370.714 341.495Z" fill="#38B939" stroke="#26333A" stroke-miterlimit="10" stroke-linecap="round" stroke-linejoin="round"/>
<path d="M479.784 476.282C479.784 476.282 488.558 455.178 506.106 445.218C523.654 435.257 532.427 430.989 550.45 431.701C568.472 432.412 579.617 438.578 586.968 442.372C594.319 446.165 600.01 462.528 600.01 462.528L584.834 464.187C584.834 464.187 583.885 465.61 583.173 466.084C582.462 466.558 576.06 467.981 576.06 467.981L572.74 458.733V467.507L563.966 465.847C563.966 465.847 560.884 456.599 557.326 453.279L559.935 467.507L550.213 467.981L547.604 462.527L546.655 468.217C546.655 468.217 535.035 470.114 533.85 470.114C532.665 470.114 525.55 471.063 525.55 471.063L523.179 461.104L524.128 469.404L517.015 469.642C517.015 469.642 515.829 459.92 513.457 454.702C511.085 449.485 511.085 449.485 511.085 449.485C511.085 449.485 501.6 454.465 492.59 467.033C483.578 479.601 481.919 491.695 481.919 491.695L479.784 476.282Z" fill="#38B939" stroke="#26333A" stroke-miterlimit="10" stroke-linecap="round" stroke-linejoin="round"/>
<path d="M514.406 446.642C514.406 446.642 525.551 435.259 550.688 436.209C575.823 437.158 585.783 444.745 587.206 445.694" stroke="#26333A" stroke-miterlimit="10" stroke-linecap="round" stroke-linejoin="round"/>
<path d="M527.21 447.827C527.21 447.827 534.562 454.229 533.85 470.118" stroke="#26333A" stroke-miterlimit="10" stroke-linecap="round" stroke-linejoin="round"/>
<path d="M541.913 453.518C541.913 453.518 543.573 457.075 543.336 461.58" stroke="#26333A" stroke-miterlimit="10" stroke-linecap="round" stroke-linejoin="round"/>
<path d="M571.317 441.899C571.317 441.899 573.688 445.219 574.637 451.385" stroke="#26333A" stroke-miterlimit="10" stroke-linecap="round" stroke-linejoin="round"/>
<path d="M586.968 463.715C586.968 463.715 585.545 458.024 584.36 454.467" stroke="#26333A" stroke-miterlimit="10" stroke-linecap="round" stroke-linejoin="round"/>
<path d="M483.842 375.741C483.842 375.741 472.527 366.245 472.931 358.162C473.335 350.08 469.698 338.765 468.081 335.128C466.465 331.492 461.212 315.327 461.212 311.286C461.212 307.246 461.212 303.608 461.212 303.608L472.408 291.819L458.383 295.929C458.383 295.929 457.171 279.765 456.766 274.512L466.464 270.876L458.786 267.643C458.786 267.643 457.17 242.588 458.382 238.952C459.594 235.315 459.594 233.294 459.594 233.294L468.484 231.273L461.614 227.637C461.614 227.637 462.422 209.856 464.443 202.986C466.464 196.116 477.375 191.267 478.587 184.801C479.799 178.336 477.375 173.486 478.991 170.658C480.608 167.829 491.114 158.535 491.114 158.535C491.114 158.535 506.065 169.042 508.49 177.123C510.915 185.205 510.915 192.478 510.915 192.478L518.594 201.369L519.805 212.684L513.34 213.088L518.998 217.937C518.998 217.937 524.655 239.354 525.059 249.458C525.463 259.561 524.251 262.39 523.442 267.642C522.634 272.895 523.038 297.141 523.038 297.141L515.764 295.524L522.229 302.394L520.208 316.537L511.318 313.709L516.167 322.195C516.167 322.195 506.064 356.948 505.256 361.394C504.448 365.839 500.812 370.284 495.153 373.113C489.499 375.943 483.842 375.741 483.842 375.741Z" fill="#38B939" stroke="#26333A" stroke-miterlimit="10" stroke-linecap="round" stroke-linejoin="round"/>
<path d="M475.785 289.568L484.412 284.317" stroke="#26333A" stroke-miterlimit="10" stroke-linecap="round" stroke-linejoin="round"/>
<path d="M461.531 316.199L484.412 305.323" stroke="#26333A" stroke-miterlimit="10" stroke-linecap="round" stroke-linejoin="round"/>
<path d="M474.66 330.828L482.162 327.827" stroke="#26333A" stroke-miterlimit="10" stroke-linecap="round" stroke-linejoin="round"/>
<path d="M512.169 335.704L498.666 327.452" stroke="#26333A" stroke-miterlimit="10" stroke-linecap="round" stroke-linejoin="round"/>
<path d="M511.322 313.71L496.415 303.447" stroke="#26333A" stroke-miterlimit="10" stroke-linecap="round" stroke-linejoin="round"/>
<path d="M515.766 295.526L503.542 286.568" stroke="#26333A" stroke-miterlimit="10" stroke-linecap="round" stroke-linejoin="round"/>
<path d="M496.79 252.809L517.42 265.188" stroke="#26333A" stroke-miterlimit="10" stroke-linecap="round" stroke-linejoin="round"/>
<path d="M512.169 257.685L524.547 264.812" stroke="#26333A" stroke-miterlimit="10" stroke-linecap="round" stroke-linejoin="round"/>
<path d="M496.415 219.051L508.418 225.053" stroke="#26333A" stroke-miterlimit="10" stroke-linecap="round" stroke-linejoin="round"/>
<path d="M513.343 213.088L499.416 207.423" stroke="#26333A" stroke-miterlimit="10" stroke-linecap="round" stroke-linejoin="round"/>
<path d="M463.032 244.558L475.035 239.682" stroke="#26333A" stroke-miterlimit="10" stroke-linecap="round" stroke-linejoin="round"/>
<path d="M469.409 271.564L479.161 267.813" stroke="#26333A" stroke-miterlimit="10" stroke-linecap="round" stroke-linejoin="round"/>
<path d="M491.807 166.275C491.807 166.275 487.339 293.798 485.769 332.501C484.2 371.206 473.74 483.66 473.74 483.66L484.201 499.873L488.386 372.776C488.386 372.776 491.001 316.811 491.523 292.228C492.046 267.646 495.467 156.861 491.807 166.275Z" fill="#38B939" stroke="#26333A" stroke-miterlimit="10" stroke-linecap="round" stroke-linejoin="round"/>
<path d="M470.601 473.723C470.601 473.723 490.999 504.582 491.523 506.151C492.046 507.721 493.092 583.037 494.138 586.176C495.185 589.314 500.414 600.299 500.414 600.299H459.617C459.617 600.299 463.802 587.223 465.894 576.762C467.986 566.301 469.555 497.26 470.078 490.983C470.601 484.707 470.601 473.723 470.601 473.723Z" fill="#38B939" stroke="#26333A" stroke-miterlimit="10" stroke-linecap="round" stroke-linejoin="round"/>
<path d="M469.031 539.103C469.031 539.103 473.738 534.918 474.261 546.949C474.784 558.979 479.491 568.393 479.491 568.393L481.06 555.84C481.06 555.84 483.153 560.024 484.722 567.871C486.292 575.717 487.86 581.992 489.429 584.608C490.999 587.223 496.751 592.977 496.751 592.977" stroke="#26333A" stroke-miterlimit="10" stroke-linecap="round" stroke-linejoin="round"/>
<path d="M279.158 284.962C279.158 284.962 284.695 269.3 304.281 244.038C324.262 218.267 336.139 215.287 343.133 209.59C350.126 203.891 373.696 192.754 384.316 190.423C394.935 188.092 400.115 188.351 400.115 188.351L410.993 206.741C410.993 206.741 405.294 214.252 402.446 216.066L391.568 213.217L398.82 220.988L389.495 228.24L383.797 223.06L385.869 230.312C385.869 230.312 372.401 243.782 371.624 245.594C370.846 247.408 359.191 254.4 357.637 256.213C356.083 258.027 351.421 266.574 351.421 266.574L342.097 266.055L347.276 272.531L342.097 276.935L339.248 278.747C339.248 278.747 333.55 280.301 332.255 281.078C330.96 281.856 327.592 284.704 327.592 284.704L321.894 290.144L314.383 292.993L311.535 294.029L312.053 298.95L301.434 305.943C301.434 305.943 297.291 299.467 293.404 295.065C289.518 290.66 279.158 284.962 279.158 284.962Z" fill="#22B123" stroke="#263238" stroke-miterlimit="10" stroke-linecap="round" stroke-linejoin="round"/>
<path d="M330.144 223.282L354.078 239.737" stroke="#263238" stroke-miterlimit="10" stroke-linecap="round" stroke-linejoin="round"/>
<path d="M354.078 232.257L368.539 242.231" stroke="#263238" stroke-miterlimit="10" stroke-linecap="round" stroke-linejoin="round"/>
<path d="M327.334 256.988L339.248 264.24" stroke="#263238" stroke-miterlimit="10" stroke-linecap="round" stroke-linejoin="round"/>
<path d="M376.805 227.201L357.638 210.107" stroke="#263238" stroke-miterlimit="10" stroke-linecap="round" stroke-linejoin="round"/>
<path d="M362.818 204.926L373.956 213.992" stroke="#263238" stroke-miterlimit="10" stroke-linecap="round" stroke-linejoin="round"/>
<path d="M391.569 213.216L380.95 202.596" stroke="#263238" stroke-miterlimit="10" stroke-linecap="round" stroke-linejoin="round"/>
<path d="M393.9 198.969L399.598 205.704" stroke="#263238" stroke-miterlimit="10" stroke-linecap="round" stroke-linejoin="round"/>
<path d="M306.354 288.588L310.757 292.214" stroke="#263238" stroke-miterlimit="10" stroke-linecap="round" stroke-linejoin="round"/>
<path d="M264.825 354.815C264.825 354.815 263.963 298.324 280.23 271.851C296.496 245.379 320.243 221.221 342.251 208.783C364.258 196.345 372.025 193.991 382.266 191.337C389.681 189.415 401.486 187.411 400.116 188.351C396.868 190.579 372.854 194.142 353.907 205.193C334.292 216.633 309.027 240.096 296.169 257.331C287.256 269.279 279.592 278.87 276.722 299.6C273.851 320.332 271.939 337.874 272.257 344.572C272.576 351.269 272.894 357.329 272.894 357.329" fill="#22B123"/>
<path d="M264.825 354.815C264.825 354.815 263.963 298.324 280.23 271.851C296.496 245.379 320.243 221.221 342.251 208.783C364.258 196.345 372.025 193.991 382.266 191.337C389.681 189.415 401.486 187.411 400.116 188.351C396.868 190.579 372.854 194.142 353.907 205.193C334.292 216.633 309.027 240.096 296.169 257.331C287.256 269.279 279.592 278.87 276.722 299.6C273.851 320.332 271.939 337.874 272.257 344.572C272.576 351.269 272.894 357.329 272.894 357.329" stroke="#263238" stroke-miterlimit="10" stroke-linecap="round" stroke-linejoin="round"/>
<path d="M260.67 358.971C260.67 358.971 264.603 341.381 231.433 317.779C198.263 294.178 184.548 282.695 158.075 276.635C131.603 270.575 105.13 273.446 90.1402 278.23C75.1503 283.013 57.9269 292.263 57.2894 293.858C56.6518 295.453 76.4254 282.695 111.51 281.42C146.594 280.145 163.816 285.248 177.85 291.946C191.884 298.643 214.849 314.91 229.201 327.668C243.553 340.425 250.57 350.951 251.527 355.097C252.484 359.243 256.311 368.174 256.311 368.174C256.311 368.174 261.202 363.804 260.67 358.971Z" fill="#22B123" stroke="#263238" stroke-miterlimit="10" stroke-linecap="round" stroke-linejoin="round"/>
<path d="M233.313 250.772C233.313 250.772 225.542 261.65 223.73 265.276C221.917 268.902 220.104 272.529 219.845 273.565C219.586 274.601 210.52 272.011 210.52 272.011L206.894 270.975L208.448 266.313L198.087 269.68C198.087 269.68 184.619 263.204 182.806 262.169C180.993 261.133 175.554 257.507 175.554 257.507L177.367 253.362L169.597 257.247C169.597 257.247 163.898 255.693 161.567 253.103C159.236 250.514 153.796 244.556 144.472 239.635C135.147 234.714 131.262 231.088 131.262 231.088L124.528 225.39L120.902 220.469L121.938 215.548L116.758 218.138L107.692 212.181V208.813L101.217 210.627L89.3022 201.821L92.4109 184.209C92.4109 184.209 110.282 181.1 137.997 188.093C165.712 195.087 184.101 205.189 185.137 205.706C186.173 206.225 211.297 226.167 215.959 231.607C220.621 237.044 233.313 250.772 233.313 250.772Z" fill="#22B123" stroke="#263238" stroke-miterlimit="10" stroke-linecap="round" stroke-linejoin="round"/>
<path d="M137.997 188.091L130.485 201.3" stroke="#263238" stroke-miterlimit="10" stroke-linecap="round" stroke-linejoin="round"/>
<path d="M142.659 197.156L133.075 213.992" stroke="#263238" stroke-miterlimit="10" stroke-linecap="round" stroke-linejoin="round"/>
<path d="M186.432 207.776L177.885 219.173" stroke="#263238" stroke-miterlimit="10" stroke-linecap="round" stroke-linejoin="round"/>
<path d="M176.59 221.244L173.481 225.647" stroke="#263238" stroke-miterlimit="10" stroke-linecap="round" stroke-linejoin="round"/>
<path d="M177.366 253.362L192.13 236.267" stroke="#263238" stroke-miterlimit="10" stroke-linecap="round" stroke-linejoin="round"/>
<path d="M214.405 231.346L209.224 237.044" stroke="#263238" stroke-miterlimit="10" stroke-linecap="round" stroke-linejoin="round"/>
<path d="M211.555 263.723L217.514 255.952" stroke="#263238" stroke-miterlimit="10" stroke-linecap="round" stroke-linejoin="round"/>
<path d="M108.47 184.206L100.958 200.264" stroke="#263238" stroke-miterlimit="10" stroke-linecap="round" stroke-linejoin="round"/>
<path d="M260.67 358.971C260.67 358.971 256.513 293.503 240.925 267.004C225.337 240.505 197.8 210.37 165.586 199.459C133.372 188.547 124.739 184.465 92.4121 184.206C92.4121 184.206 101.977 179.49 130.276 183.946C158.576 188.402 189.771 203.555 206.484 217.816C223.196 232.077 242.137 256.588 253.278 284.442C264.419 312.295 269.099 349.508 269.099 349.508L272.219 362.655L260.632 363.546L260.67 358.971Z" fill="#22B123" stroke="#263238" stroke-miterlimit="10" stroke-linecap="round" stroke-linejoin="round"/>
<path d="M205.081 302.833C205.081 302.833 173.481 284.443 157.422 281.336C141.363 278.227 118.052 277.968 104.842 280.041C91.6332 282.113 80.7537 285.22 79.9776 285.739C79.2001 286.258 67.027 289.883 65.4734 290.919C63.9198 291.955 57.2881 293.858 57.2881 293.858L62.1061 311.639L78.1652 316.56L83.0862 311.12V314.229L94.7418 318.632L104.584 321.999L108.21 324.589L118.829 307.235L113.908 326.662L127.636 332.619L140.328 306.199L132.557 330.288L145.249 333.914C145.249 333.914 154.056 337.022 155.351 337.54C156.646 338.057 162.344 340.13 162.344 340.13L168.043 331.583L167.784 340.648L178.922 341.943L193.168 343.497L204.046 347.9L211.817 335.209L210.003 343.756L222.436 341.942L229.429 319.408L205.081 302.833Z" fill="#22B123" stroke="#263238" stroke-miterlimit="10" stroke-linecap="round" stroke-linejoin="round"/>
<path d="M147.58 282.63L141.623 299.207" stroke="#263238" stroke-miterlimit="10" stroke-linecap="round" stroke-linejoin="round"/>
<path d="M93.7056 316.042L97.3316 304.905" stroke="#263238" stroke-miterlimit="10" stroke-linecap="round" stroke-linejoin="round"/>
<path d="M101.994 283.148L97.8491 301.279" stroke="#263238" stroke-miterlimit="10" stroke-linecap="round" stroke-linejoin="round"/>
<path d="M83.0859 311.121L86.1945 297.912" stroke="#263238" stroke-miterlimit="10" stroke-linecap="round" stroke-linejoin="round"/>
<path d="M74.0204 288.588L73.5029 298.43" stroke="#263238" stroke-miterlimit="10" stroke-linecap="round" stroke-linejoin="round"/>
<path d="M155.35 337.541L163.898 320.446" stroke="#263238" stroke-miterlimit="10" stroke-linecap="round" stroke-linejoin="round"/>
<path d="M167.005 313.452L164.674 318.115" stroke="#263238" stroke-miterlimit="10" stroke-linecap="round" stroke-linejoin="round"/>
<path d="M104.583 321.999L107.433 316.042" stroke="#263238" stroke-miterlimit="10" stroke-linecap="round" stroke-linejoin="round"/>
<path d="M316.293 315.12L323.257 343.583C323.257 343.583 343.848 341.766 344.756 341.463C345.664 341.159 348.996 332.379 348.996 332.379L351.116 340.251L388.663 331.469V317.843L391.086 329.653L402.29 329.047L396.839 295.738L405.318 325.413L412.888 323.597L413.19 317.843L416.521 322.687L434.083 318.145L434.385 289.984L440.138 315.723L472.235 306.941L472.841 295.434L475.263 305.125L499.79 302.399C499.79 302.399 513.719 290.589 514.931 288.167C516.142 285.744 517.811 279.187 517.811 279.187C517.811 279.187 495.854 269.696 461.335 268.788C426.815 267.879 405.921 265.154 368.071 284.534C330.222 303.917 332.644 301.797 316.293 315.12Z" fill="#22B123" stroke="#263238" stroke-miterlimit="10" stroke-linecap="round" stroke-linejoin="round"/>
<path d="M352.326 316.028L357.776 338.133" stroke="#263238" stroke-miterlimit="10" stroke-linecap="round" stroke-linejoin="round"/>
<path d="M352.932 304.219L357.172 321.782" stroke="#263238" stroke-miterlimit="10" stroke-linecap="round" stroke-linejoin="round"/>
<path d="M396.84 295.741L394.114 283.326" stroke="#263238" stroke-miterlimit="10" stroke-linecap="round" stroke-linejoin="round"/>
<path d="M410.162 303.613L412.282 314.212" stroke="#263238" stroke-miterlimit="10" stroke-linecap="round" stroke-linejoin="round"/>
<path d="M452.555 312.697L449.83 297.557" stroke="#263238" stroke-miterlimit="10" stroke-linecap="round" stroke-linejoin="round"/>
<path d="M449.83 270.306L453.16 290.593" stroke="#263238" stroke-miterlimit="10" stroke-linecap="round" stroke-linejoin="round"/>
<path d="M456.492 278.48L461.942 305.431" stroke="#263238" stroke-miterlimit="10" stroke-linecap="round" stroke-linejoin="round"/>
<path d="M485.561 286.051L486.772 303.917" stroke="#263238" stroke-miterlimit="10" stroke-linecap="round" stroke-linejoin="round"/>
<path d="M493.131 274.846L492.525 286.353" stroke="#263238" stroke-miterlimit="10" stroke-linecap="round" stroke-linejoin="round"/>
<path d="M323.561 310.275L326.891 319.965" stroke="#263238" stroke-miterlimit="10" stroke-linecap="round" stroke-linejoin="round"/>
<path d="M266.772 359.722C266.772 359.722 284.669 329.398 329.905 300.567C375.143 271.734 413.916 263.781 453.189 266.763C492.46 269.746 517.814 279.191 517.814 279.191C517.814 279.191 485.562 270.306 454.979 270.608C424.396 270.91 408.953 272.424 384.729 279.389C360.504 286.353 329.921 301.191 316.294 315.12C302.668 329.048 287.528 344.795 287.528 344.795C287.528 344.795 278.443 362.963 278.443 379.314C278.443 395.665 279.655 415.045 279.655 415.045C279.655 415.045 273.599 405.355 269.965 407.172C266.331 408.989 255.733 419.891 255.733 419.891L253.917 392.336L259.67 350.246L266.772 359.722Z" fill="#22B123" stroke="#263238" stroke-miterlimit="10" stroke-linecap="round" stroke-linejoin="round"/>
<path d="M274.531 379.107C274.531 379.107 283.305 358.002 300.852 348.043C318.4 338.084 327.174 333.815 345.196 334.526C363.218 335.238 374.362 341.403 381.713 345.197C389.065 348.991 394.755 365.354 394.755 365.354L379.579 367.014C379.579 367.014 378.63 368.437 377.92 368.911C377.208 369.385 370.806 370.808 370.806 370.808L367.486 361.56V370.334L358.712 368.673C358.712 368.673 355.63 359.425 352.073 356.106L354.681 370.334L344.959 370.808L342.351 365.354L341.402 371.044C341.402 371.044 329.782 372.941 328.597 372.941C327.411 372.941 320.296 373.89 320.296 373.89L317.926 363.931L318.874 372.231L311.76 372.468C311.76 372.468 310.575 362.747 308.203 357.529C305.832 352.312 305.832 352.312 305.832 352.312C305.832 352.312 296.346 357.292 287.336 369.86C278.326 382.428 276.665 394.522 276.665 394.522L274.531 379.107Z" fill="#22B123" stroke="#263238" stroke-miterlimit="10" stroke-linecap="round" stroke-linejoin="round"/>
<path d="M309.152 349.465C309.152 349.465 320.297 338.082 345.433 339.031C370.569 339.98 380.528 347.568 381.951 348.517" stroke="#263238" stroke-miterlimit="10" stroke-linecap="round" stroke-linejoin="round"/>
<path d="M321.956 350.651C321.956 350.651 329.307 357.053 328.595 372.942" stroke="#263238" stroke-miterlimit="10" stroke-linecap="round" stroke-linejoin="round"/>
<path d="M336.658 356.342C336.658 356.342 338.318 359.899 338.081 364.404" stroke="#263238" stroke-miterlimit="10" stroke-linecap="round" stroke-linejoin="round"/>
<path d="M366.062 344.723C366.062 344.723 368.433 348.043 369.382 354.209" stroke="#263238" stroke-miterlimit="10" stroke-linecap="round" stroke-linejoin="round"/>
<path d="M381.713 366.539C381.713 366.539 380.29 360.847 379.105 357.291" stroke="#263238" stroke-miterlimit="10" stroke-linecap="round" stroke-linejoin="round"/>
<path d="M258.766 40.5042C258.766 40.5042 247.451 50.0003 247.855 58.0826C248.259 66.165 244.622 77.48 243.005 81.1166C241.388 84.7532 236.136 100.918 236.136 104.958C236.136 108.999 236.136 112.637 236.136 112.637L247.332 124.426L233.307 120.315C233.307 120.315 232.096 136.48 231.69 141.732L241.388 145.369L233.71 148.602C233.71 148.602 232.093 173.657 233.306 177.293C234.518 180.93 234.518 182.951 234.518 182.951L243.408 184.972L236.539 188.608C236.539 188.608 237.347 206.389 239.368 213.259C241.388 220.128 252.3 224.978 253.511 231.444C254.723 237.909 252.3 242.759 253.915 245.587C255.532 248.416 266.038 257.71 266.038 257.71C266.038 257.71 280.99 247.203 283.415 239.121C285.839 231.038 285.839 223.765 285.839 223.765L293.518 214.875L294.73 203.56L288.264 203.156L293.922 198.306C293.922 198.306 299.579 176.889 299.983 166.786C300.387 156.683 299.175 153.855 298.366 148.602C297.558 143.348 297.962 119.102 297.962 119.102L290.689 120.719L297.155 113.85L295.134 99.7062L286.243 102.535L291.093 94.0487C291.093 94.0487 280.991 59.2957 280.182 54.85C279.374 50.4042 275.738 45.9598 270.079 43.131C264.424 40.3022 258.766 40.5042 258.766 40.5042Z" fill="#22B123" stroke="#263238" stroke-miterlimit="10" stroke-linecap="round" stroke-linejoin="round"/>
<path d="M261.275 41.5206L264.825 354.815L270.022 355.854L266.904 97.6206L261.275 41.5206Z" fill="#22B123" stroke="#263238" stroke-miterlimit="10" stroke-linecap="round" stroke-linejoin="round"/>
<path d="M250.709 126.676L259.335 131.927" stroke="#263238" stroke-miterlimit="10" stroke-linecap="round" stroke-linejoin="round"/>
<path d="M236.456 100.045L259.335 110.922" stroke="#263238" stroke-miterlimit="10" stroke-linecap="round" stroke-linejoin="round"/>
<path d="M249.583 85.4172L257.085 88.4176" stroke="#263238" stroke-miterlimit="10" stroke-linecap="round" stroke-linejoin="round"/>
<path d="M287.092 80.5398L273.588 88.7924" stroke="#263238" stroke-miterlimit="10" stroke-linecap="round" stroke-linejoin="round"/>
<path d="M286.245 102.535L271.338 112.798" stroke="#263238" stroke-miterlimit="10" stroke-linecap="round" stroke-linejoin="round"/>
<path d="M290.691 120.719L278.465 129.677" stroke="#263238" stroke-miterlimit="10" stroke-linecap="round" stroke-linejoin="round"/>
<path d="M271.714 163.434L292.343 151.057" stroke="#263238" stroke-miterlimit="10" stroke-linecap="round" stroke-linejoin="round"/>
<path d="M287.092 158.558L299.47 151.432" stroke="#263238" stroke-miterlimit="10" stroke-linecap="round" stroke-linejoin="round"/>
<path d="M271.338 197.193L283.341 191.191" stroke="#263238" stroke-miterlimit="10" stroke-linecap="round" stroke-linejoin="round"/>
<path d="M288.266 203.156L274.34 208.821" stroke="#263238" stroke-miterlimit="10" stroke-linecap="round" stroke-linejoin="round"/>
<path d="M237.955 171.687L249.958 176.563" stroke="#263238" stroke-miterlimit="10" stroke-linecap="round" stroke-linejoin="round"/>
<path d="M244.332 144.681L254.084 148.431" stroke="#263238" stroke-miterlimit="10" stroke-linecap="round" stroke-linejoin="round"/>
<path d="M255.885 438.794C255.885 438.794 251.44 457.958 251.44 474.622C251.44 491.286 256.439 521.56 256.439 521.56L250.606 589.606L248.662 599.326L279.49 595.437C279.49 595.437 280.323 529.614 280.323 514.617C280.323 499.619 281.124 459.522 281.124 449.246L255.885 438.794Z" fill="#22B123" stroke="#263238" stroke-miterlimit="10" stroke-linecap="round" stroke-linejoin="round"/>
<path d="M270.604 385.469C270.604 385.469 257.272 407.966 255.05 415.186C252.829 422.408 255.05 435.739 255.606 441.849C256.162 447.959 255.883 489.064 259.495 496.84C263.105 504.616 272.827 526.557 272.827 526.557C272.827 526.557 280.049 470.455 281.437 459.623C282.826 448.791 282.27 442.125 281.993 438.793C281.716 435.46 280.049 406.853 280.049 406.853L275.05 399.633L276.438 388.801L271.717 392.134L270.604 385.469Z" fill="#26333A" stroke="#263238" stroke-miterlimit="10" stroke-linecap="round" stroke-linejoin="round"/>
<path d="M243.664 599.603L256.162 587.661C256.162 587.661 260.883 571.552 263.661 566.83C266.438 562.109 266.438 572.108 266.438 572.108C266.438 572.108 272.27 556.833 275.048 551.277C277.826 545.722 285.602 534.613 287.269 532.669C288.935 530.724 291.158 524.337 291.435 527.67C291.712 531.003 291.435 537.946 290.323 539.891C289.212 541.835 286.99 542.391 286.713 551.555C286.436 560.72 286.436 569.608 286.436 569.608C286.436 569.608 285.88 563.22 287.269 577.107C288.658 590.993 291.435 600.436 291.435 600.436" fill="#22B123"/>
<path d="M243.664 599.603L256.162 587.661C256.162 587.661 260.883 571.552 263.661 566.83C266.438 562.109 266.438 572.108 266.438 572.108C266.438 572.108 272.27 556.833 275.048 551.277C277.826 545.722 285.602 534.613 287.269 532.669C288.935 530.724 291.158 524.337 291.435 527.67C291.712 531.003 291.435 537.946 290.323 539.891C289.212 541.835 286.99 542.391 286.713 551.555C286.436 560.72 286.436 569.608 286.436 569.608C286.436 569.608 285.88 563.22 287.269 577.107C288.658 590.993 291.435 600.436 291.435 600.436" stroke="#263238" stroke-miterlimit="10" stroke-linecap="round" stroke-linejoin="round"/>
<path d="M253.915 392.336C253.915 392.336 250.606 362.695 247.274 354.085C243.941 345.474 224.778 338.81 210.613 349.64C196.448 360.472 194.782 367.138 192.005 385.468C189.227 403.799 190.339 479.621 190.339 479.621L190.062 518.225L183.118 516.837L183.396 415.185C183.396 415.185 178.951 393.244 185.34 373.802C191.727 354.361 202.838 342.973 213.669 338.251C224.5 333.53 245.886 338.528 250.052 340.751C254.218 342.973 259.669 350.244 259.669 350.244C259.669 350.244 264.445 374.76 253.915 392.336Z" fill="#22B123" stroke="#263238" stroke-miterlimit="10" stroke-linecap="round" stroke-linejoin="round"/>
<path d="M166.472 441.317C166.472 441.317 159.456 434.539 157.315 435.49C155.174 436.442 157.671 437.869 157.671 437.869C157.671 437.869 158.861 440.485 159.812 442.389C160.764 444.291 160.406 444.053 166.709 446.194C173.012 448.335 171.348 444.291 169.563 442.983C167.78 441.673 166.472 441.317 166.472 441.317Z" fill="#FFEA32" stroke="#263238" stroke-miterlimit="10" stroke-linecap="round" stroke-linejoin="round"/>
<path d="M179.791 434.419C179.791 434.419 178.72 431.446 178.126 426.926C177.532 422.408 177.532 418.721 175.985 419.672C174.439 420.623 172.179 420.147 172.179 426.331C172.179 432.515 173.963 438.104 173.963 438.104C173.963 438.104 170.157 435.725 167.66 429.422C165.162 423.119 164.687 420.266 163.379 421.811C162.071 423.357 161 433.703 162.785 437.152C164.568 440.601 167.661 443.812 170.159 445.239C172.656 446.666 176.343 447.736 178.364 443.812C180.386 439.89 179.791 434.419 179.791 434.419Z" fill="#FFEA32" stroke="#263238" stroke-miterlimit="10" stroke-linecap="round" stroke-linejoin="round"/>
<path d="M180.861 433.348C180.861 433.348 179.553 428.116 182.407 422.527C185.261 416.938 186.569 416.581 189.543 415.511C192.516 414.44 192.873 416.463 192.516 417.413C192.159 418.365 192.159 418.365 192.159 418.365C192.159 418.365 192.397 421.814 191.445 423.241C190.493 424.668 189.304 425.619 188.948 428.711C188.591 431.802 189.185 435.133 189.185 435.133C189.185 435.133 187.282 441.079 185.974 442.863C184.665 444.646 183.001 443.814 182.049 441.198C181.098 438.582 180.861 433.348 180.861 433.348Z" fill="#FFEA32" stroke="#263238" stroke-miterlimit="10" stroke-linecap="round" stroke-linejoin="round"/>
<path d="M178.245 448.451C178.245 448.451 174.796 451.543 170.515 452.495C166.234 453.446 161.002 451.899 158.979 448.214C156.959 444.527 157.315 443.338 158.861 443.219C160.406 443.1 163.499 443.932 168.493 444.29C173.488 444.646 177.531 444.29 178.125 445.479C178.72 446.668 178.72 447.262 178.245 448.451Z" fill="#FFEA32" stroke="#263238" stroke-miterlimit="10" stroke-linecap="round" stroke-linejoin="round"/>
<path d="M167.78 452.495C167.78 452.495 166.709 454.397 162.547 456.775C158.385 459.154 159.098 461.889 160.525 462.008C161.952 462.127 164.568 461.889 164.568 461.889C164.568 461.889 171.823 461.533 175.033 459.035C178.243 456.538 178.482 451.543 178.363 449.997C178.245 448.452 178.245 448.451 178.245 448.451C178.245 448.451 175.153 452.138 167.78 452.495Z" fill="#FFEA32" stroke="#263238" stroke-miterlimit="10" stroke-linecap="round" stroke-linejoin="round"/>
<path d="M216.062 443.219C216.062 443.219 222.483 440.365 222.721 443.575C222.959 446.786 222.602 447.262 218.797 449.641C214.991 452.019 213.683 452.732 213.683 452.732C213.683 452.732 212.969 449.641 211.661 448.689C210.353 447.737 209.401 447.381 209.401 447.381L216.062 443.219Z" fill="#FFEA32" stroke="#263238" stroke-miterlimit="10" stroke-linecap="round" stroke-linejoin="round"/>
<path d="M201.434 432.754C201.434 432.754 209.164 428.949 210.235 430.138C211.305 431.327 211.424 434.419 209.046 437.511C206.667 440.604 201.91 445.004 196.797 445.479C191.684 445.954 188.116 446.549 188.473 444.885C188.83 443.22 194.062 438.463 196.441 436.322C198.818 434.181 201.434 432.754 201.434 432.754Z" fill="#FFEA32" stroke="#263238" stroke-miterlimit="10" stroke-linecap="round" stroke-linejoin="round"/>
<path d="M184.429 441.792C184.429 441.792 186.333 437.749 188.472 435.014C190.613 432.279 195.608 430.257 198.937 429.781C202.266 429.306 202.386 431.684 201.435 432.754C200.483 433.825 199.413 434.656 198.937 435.846C198.462 437.035 197.154 438.462 193.467 440.484C189.78 442.505 189.186 445.002 187.521 445.598C185.856 446.192 184.429 442.506 184.429 441.792Z" fill="#FFEA32" stroke="#263238" stroke-miterlimit="10" stroke-linecap="round" stroke-linejoin="round"/>
<path d="M189.78 456.538C189.78 456.538 193.705 464.624 199.531 465.813C205.359 467.003 207.142 463.554 205.596 460.937C204.051 458.321 201.672 456.657 200.483 454.872C199.293 453.089 197.391 449.758 192.159 451.899C186.926 454.04 189.78 456.538 189.78 456.538Z" fill="#FFEA32" stroke="#263238" stroke-miterlimit="10" stroke-linecap="round" stroke-linejoin="round"/>
<path d="M205.597 460.939C205.597 460.939 211.542 463.317 212.375 459.987C213.208 456.657 208.332 453.565 204.764 453.209C201.196 452.852 199.531 452.615 199.531 454.517C199.531 456.419 204.407 459.868 205.597 460.939Z" fill="#FFEA32" stroke="#263238" stroke-miterlimit="10" stroke-linecap="round" stroke-linejoin="round"/>
<path d="M179.078 446.906C179.078 446.906 179.434 443.457 180.505 443.1C181.575 442.744 182.765 443.575 182.765 443.575C182.765 443.575 183.598 441.911 185.262 442.624C186.927 443.338 188.711 449.878 189.424 451.899C190.137 453.922 191.446 454.04 191.208 455.348C190.97 456.657 181.575 463.435 178.245 454.397L179.078 446.906Z" fill="#FFEA32" stroke="#263238" stroke-miterlimit="10" stroke-linecap="round" stroke-linejoin="round"/>
<path d="M202.266 443.1C202.266 443.1 205.001 441.555 209.64 439.057C214.277 436.56 220.223 433.349 219.39 437.274C218.558 441.198 212.85 447.382 206.905 449.522C200.958 451.663 200.126 451.305 200.126 451.305C200.126 451.305 196.321 451.068 191.921 448.333C187.522 445.598 188.353 443.457 189.899 442.981C191.445 442.506 202.266 443.1 202.266 443.1Z" fill="#FFEA32" stroke="#263238" stroke-miterlimit="10" stroke-linecap="round" stroke-linejoin="round"/>
<path d="M190.732 453.803C190.732 453.803 193.23 461.058 193.942 466.528C194.657 471.998 192.159 473.187 188.354 470.571C184.548 467.955 183.478 462.008 183.478 462.008C183.478 462.008 185.619 458.321 185.619 455.705C185.619 453.089 187.283 452.495 188.235 452.495C189.185 452.495 190.732 453.803 190.732 453.803Z" fill="#FFEA32" stroke="#263238" stroke-miterlimit="10" stroke-linecap="round" stroke-linejoin="round"/>
<path d="M187.639 443.933C187.639 443.933 194.536 447.025 196.677 448.214C198.818 449.403 200.483 449.878 200.127 451.305C199.77 452.732 201.078 452.732 197.986 454.516C194.894 456.299 192.515 457.132 191.207 455.349C189.899 453.565 187.283 447.975 187.402 446.786C187.521 445.598 186.569 443.696 187.639 443.933Z" fill="#FFEA32" stroke="#263238" stroke-miterlimit="10" stroke-linecap="round" stroke-linejoin="round"/>
<path d="M213.683 452.732C213.683 452.732 212.256 454.04 208.807 455.23C205.358 456.419 197.985 454.516 197.985 454.516L200.008 453.326L200.126 451.304C200.126 451.304 204.884 449.996 208.332 448.569C211.781 447.143 213.326 448.57 213.683 452.732Z" fill="#FFEA32" stroke="#263238" stroke-miterlimit="10" stroke-linecap="round" stroke-linejoin="round"/>
<path d="M178.72 453.209C178.72 453.209 176.818 458.204 175.51 460.582C174.202 462.961 173.608 465.221 177.174 465.34C180.742 465.458 184.071 462.723 185.498 459.037C186.925 455.35 185.379 451.901 182.882 451.663C180.386 451.424 179.196 452.019 178.72 453.209Z" fill="#FFEA32" stroke="#263238" stroke-miterlimit="10" stroke-linecap="round" stroke-linejoin="round"/>
<path d="M184.429 441.792C184.429 441.792 182.051 440.84 182.408 437.63C182.765 434.419 182.29 432.16 178.365 433.231C174.441 434.301 172.537 438.344 172.776 441.079C173.014 443.814 173.728 444.408 173.728 444.408C173.728 444.408 177.177 444.052 178.128 445.479C179.079 446.906 178.246 448.451 178.246 448.451C178.246 448.451 179.911 443.338 181.338 443.457C182.765 443.575 182.765 443.575 182.765 443.575L184.429 441.792Z" fill="#FFEA32" stroke="#263238" stroke-miterlimit="10" stroke-linecap="round" stroke-linejoin="round"/>
<path d="M169.959 392.124C169.959 392.124 162.943 385.346 160.802 386.297C158.661 387.248 161.159 388.675 161.159 388.675C161.159 388.675 162.348 391.292 163.3 393.194C164.251 395.096 163.895 394.858 170.197 396.999C176.5 399.14 174.835 395.097 173.051 393.789C171.266 392.481 169.959 392.124 169.959 392.124Z" fill="#FECE2E" stroke="#263238" stroke-miterlimit="10" stroke-linecap="round" stroke-linejoin="round"/>
<path d="M183.278 385.227C183.278 385.227 182.207 382.255 181.613 377.735C181.018 373.215 181.018 369.53 179.472 370.48C177.926 371.431 175.667 370.956 175.667 377.14C175.667 383.324 177.45 388.913 177.45 388.913C177.45 388.913 173.644 386.534 171.147 380.231C168.649 373.928 168.174 371.074 166.866 372.62C165.558 374.166 164.488 384.512 166.271 387.961C168.054 391.41 171.147 394.621 173.644 396.048C176.142 397.474 179.829 398.545 181.849 394.621C183.873 390.698 183.278 385.227 183.278 385.227Z" fill="#FECE2E" stroke="#263238" stroke-miterlimit="10" stroke-linecap="round" stroke-linejoin="round"/>
<path d="M184.349 384.157C184.349 384.157 183.04 378.924 185.894 373.336C188.748 367.747 190.056 367.389 193.03 366.32C196.003 365.249 196.361 367.271 196.003 368.222C195.646 369.174 195.646 369.174 195.646 369.174C195.646 369.174 195.884 372.623 194.934 374.05C193.982 375.477 192.793 376.428 192.436 379.52C192.08 382.611 192.674 385.942 192.674 385.942C192.674 385.942 190.772 391.888 189.464 393.671C188.155 395.455 186.491 394.623 185.539 392.007C184.586 389.389 184.349 384.157 184.349 384.157Z" fill="#FECE2E" stroke="#263238" stroke-miterlimit="10" stroke-linecap="round" stroke-linejoin="round"/>
<path d="M181.732 399.259C181.732 399.259 178.283 402.35 174.002 403.302C169.721 404.254 164.489 402.707 162.467 399.021C160.445 395.335 160.802 394.145 162.348 394.027C163.894 393.908 166.986 394.739 171.98 395.097C176.975 395.453 181.018 395.097 181.612 396.286C182.207 397.476 182.207 398.07 181.732 399.259Z" fill="#FECE2E" stroke="#263238" stroke-miterlimit="10" stroke-linecap="round" stroke-linejoin="round"/>
<path d="M171.267 403.302C171.267 403.302 170.197 405.204 166.035 407.583C161.873 409.962 162.585 412.697 164.012 412.815C165.439 412.934 168.055 412.697 168.055 412.697C168.055 412.697 175.309 412.34 178.52 409.843C181.732 407.345 181.97 402.351 181.851 400.805C181.732 399.259 181.732 399.259 181.732 399.259C181.732 399.259 178.641 402.946 171.267 403.302Z" fill="#FECE2E" stroke="#263238" stroke-miterlimit="10" stroke-linecap="round" stroke-linejoin="round"/>
<path d="M219.549 394.027C219.549 394.027 225.971 391.173 226.208 394.383C226.446 397.593 226.09 398.07 222.284 400.448C218.479 402.827 217.17 403.54 217.17 403.54C217.17 403.54 216.458 400.448 215.149 399.497C213.841 398.545 212.89 398.189 212.89 398.189L219.549 394.027Z" fill="#FECE2E" stroke="#263238" stroke-miterlimit="10" stroke-linecap="round" stroke-linejoin="round"/>
<path d="M204.922 383.562C204.922 383.562 212.652 379.756 213.722 380.945C214.793 382.135 214.912 385.226 212.533 388.319C210.154 391.41 205.398 395.811 200.285 396.286C195.171 396.762 191.603 397.357 191.961 395.691C192.317 394.027 197.55 389.269 199.928 387.128C202.306 384.989 204.922 383.562 204.922 383.562Z" fill="#FECE2E" stroke="#263238" stroke-miterlimit="10" stroke-linecap="round" stroke-linejoin="round"/>
<path d="M187.917 392.6C187.917 392.6 189.819 388.556 191.96 385.821C194.101 383.086 199.096 381.064 202.425 380.589C205.755 380.114 205.874 382.491 204.922 383.562C203.97 384.632 202.901 385.464 202.425 386.653C201.949 387.842 200.641 389.269 196.955 391.292C193.268 393.312 192.674 395.81 191.008 396.405C189.343 397 187.917 393.314 187.917 392.6Z" fill="#FECE2E" stroke="#263238" stroke-miterlimit="10" stroke-linecap="round" stroke-linejoin="round"/>
<path d="M193.268 407.345C193.268 407.345 197.192 415.432 203.018 416.621C208.845 417.81 210.629 414.361 209.084 411.745C207.538 409.129 205.159 407.464 203.97 405.68C202.781 403.896 200.879 400.566 195.646 402.707C190.414 404.849 193.268 407.345 193.268 407.345Z" fill="#FECE2E" stroke="#263238" stroke-miterlimit="10" stroke-linecap="round" stroke-linejoin="round"/>
<path d="M209.084 411.746C209.084 411.746 215.031 414.125 215.862 410.795C216.695 407.465 211.819 404.373 208.251 404.016C204.683 403.66 203.019 403.422 203.019 405.324C203.019 407.227 207.895 410.676 209.084 411.746Z" fill="#FECE2E" stroke="#263238" stroke-miterlimit="10" stroke-linecap="round" stroke-linejoin="round"/>
<path d="M182.565 397.713C182.565 397.713 182.922 394.264 183.992 393.908C185.063 393.551 186.252 394.383 186.252 394.383C186.252 394.383 187.085 392.718 188.75 393.431C190.414 394.145 192.199 400.686 192.912 402.707C193.626 404.729 194.934 404.848 194.695 406.156C194.457 407.464 185.063 414.242 181.732 405.204L182.565 397.713Z" fill="#FECE2E" stroke="#263238" stroke-miterlimit="10" stroke-linecap="round" stroke-linejoin="round"/>
<path d="M205.754 393.908C205.754 393.908 208.489 392.362 213.127 389.865C217.766 387.367 223.711 384.157 222.878 388.081C222.045 392.006 216.337 398.19 210.391 400.33C204.444 402.471 203.612 402.113 203.612 402.113C203.612 402.113 199.807 401.875 195.407 399.14C191.008 396.405 191.839 394.264 193.386 393.789C194.932 393.314 205.754 393.908 205.754 393.908Z" fill="#FECE2E" stroke="#263238" stroke-miterlimit="10" stroke-linecap="round" stroke-linejoin="round"/>
<path d="M194.219 404.61C194.219 404.61 196.717 411.864 197.431 417.335C198.144 422.805 195.647 423.995 191.842 421.378C188.036 418.762 186.966 412.815 186.966 412.815C186.966 412.815 189.107 409.129 189.107 406.512C189.107 403.896 190.771 403.302 191.723 403.302C192.675 403.302 194.219 404.61 194.219 404.61Z" fill="#FECE2E" stroke="#263238" stroke-miterlimit="10" stroke-linecap="round" stroke-linejoin="round"/>
<path d="M191.127 394.741C191.127 394.741 198.024 397.832 200.165 399.021C202.306 400.211 203.97 400.686 203.614 402.113C203.258 403.54 204.566 403.54 201.473 405.323C198.381 407.106 196.003 407.939 194.695 406.156C193.387 404.373 190.77 398.782 190.889 397.593C191.008 396.405 190.056 394.503 191.127 394.741Z" fill="#FECE2E" stroke="#263238" stroke-miterlimit="10" stroke-linecap="round" stroke-linejoin="round"/>
<path d="M217.17 403.541C217.17 403.541 215.743 404.849 212.294 406.039C208.845 407.228 201.473 405.324 201.473 405.324L203.494 404.135L203.612 402.114C203.612 402.114 208.37 400.806 211.818 399.379C215.268 397.951 216.814 399.378 217.17 403.541Z" fill="#FECE2E" stroke="#263238" stroke-miterlimit="10" stroke-linecap="round" stroke-linejoin="round"/>
<path d="M182.208 404.016C182.208 404.016 180.305 409.011 178.997 411.39C177.689 413.768 177.094 416.027 180.662 416.147C184.23 416.266 187.559 413.531 188.986 409.844C190.413 406.157 188.867 402.71 186.37 402.471C183.873 402.232 182.684 402.827 182.208 404.016Z" fill="#FECE2E" stroke="#263238" stroke-miterlimit="10" stroke-linecap="round" stroke-linejoin="round"/>
<path d="M187.916 392.6C187.916 392.6 185.538 391.648 185.894 388.438C186.25 385.227 185.775 382.968 181.851 384.038C177.927 385.109 176.024 389.152 176.262 391.887C176.5 394.622 177.214 395.217 177.214 395.217C177.214 395.217 180.663 394.861 181.613 396.288C182.565 397.715 181.732 399.26 181.732 399.26C181.732 399.26 183.397 394.147 184.824 394.265C186.25 394.384 186.25 394.384 186.25 394.384L187.916 392.6Z" fill="#FECE2E" stroke="#263238" stroke-miterlimit="10" stroke-linecap="round" stroke-linejoin="round"/>
<path d="M169.14 484.946C169.14 484.946 162.124 478.167 159.983 479.118C157.842 480.069 160.339 481.496 160.339 481.496C160.339 481.496 161.529 484.113 162.48 486.015C163.432 487.917 163.076 487.679 169.377 489.82C175.68 491.961 174.016 487.918 172.231 486.61C170.447 485.302 169.14 484.946 169.14 484.946Z" fill="#FFEA32" stroke="#263238" stroke-miterlimit="10" stroke-linecap="round" stroke-linejoin="round"/>
<path d="M182.46 478.049C182.46 478.049 181.39 475.076 180.796 470.556C180.202 466.037 180.202 462.351 178.654 463.302C177.107 464.252 174.849 463.777 174.849 469.961C174.849 476.145 176.632 481.734 176.632 481.734C176.632 481.734 172.827 479.355 170.329 473.052C167.832 466.749 167.357 463.896 166.048 465.441C164.74 466.987 163.67 477.333 165.454 480.782C167.238 484.231 170.331 487.442 172.828 488.869C175.325 490.296 179.012 491.366 181.033 487.442C183.054 483.519 182.46 478.049 182.46 478.049Z" fill="#FFEA32" stroke="#263238" stroke-miterlimit="10" stroke-linecap="round" stroke-linejoin="round"/>
<path d="M183.529 476.978C183.529 476.978 182.221 471.746 185.075 466.157C187.929 460.568 189.237 460.21 192.211 459.141C195.183 458.07 195.541 460.093 195.183 461.043C194.827 461.995 194.827 461.995 194.827 461.995C194.827 461.995 195.065 465.444 194.114 466.871C193.163 468.298 191.973 469.249 191.617 472.341C191.26 475.432 191.854 478.763 191.854 478.763C191.854 478.763 189.952 484.709 188.644 486.493C187.336 488.276 185.672 487.444 184.72 484.828C183.767 482.211 183.529 476.978 183.529 476.978Z" fill="#FFEA32" stroke="#263238" stroke-miterlimit="10" stroke-linecap="round" stroke-linejoin="round"/>
<path d="M180.913 492.08C180.913 492.08 177.464 495.172 173.183 496.123C168.902 497.075 163.67 495.528 161.647 491.843C159.625 488.156 159.983 486.966 161.529 486.848C163.074 486.729 166.167 487.56 171.161 487.918C176.156 488.275 180.199 487.918 180.793 489.108C181.389 490.297 181.389 490.891 180.913 492.08Z" fill="#FFEA32" stroke="#263238" stroke-miterlimit="10" stroke-linecap="round" stroke-linejoin="round"/>
<path d="M170.448 496.123C170.448 496.123 169.377 498.025 165.215 500.404C161.053 502.783 161.766 505.518 163.193 505.637C164.62 505.755 167.236 505.518 167.236 505.518C167.236 505.518 174.49 505.161 177.701 502.664C180.911 500.167 181.15 495.172 181.031 493.626C180.913 492.08 180.913 492.08 180.913 492.08C180.913 492.08 177.821 495.767 170.448 496.123Z" fill="#FFEA32" stroke="#263238" stroke-miterlimit="10" stroke-linecap="round" stroke-linejoin="round"/>
<path d="M218.73 486.848C218.73 486.848 225.152 483.994 225.389 487.204C225.627 490.414 225.27 490.891 221.465 493.27C217.659 495.648 216.351 496.361 216.351 496.361C216.351 496.361 215.638 493.27 214.33 492.318C213.022 491.366 212.07 491.01 212.07 491.01L218.73 486.848Z" fill="#FFEA32" stroke="#263238" stroke-miterlimit="10" stroke-linecap="round" stroke-linejoin="round"/>
<path d="M204.102 476.383C204.102 476.383 211.832 472.577 212.903 473.766C213.973 474.956 214.092 478.047 211.714 481.14C209.335 484.231 204.579 488.632 199.465 489.108C194.352 489.583 190.784 490.178 191.141 488.512C191.498 486.848 196.73 482.09 199.109 479.949C201.486 477.81 204.102 476.383 204.102 476.383Z" fill="#FFEA32" stroke="#263238" stroke-miterlimit="10" stroke-linecap="round" stroke-linejoin="round"/>
<path d="M187.097 485.421C187.097 485.421 188.999 481.378 191.14 478.643C193.281 475.908 198.275 473.885 201.605 473.41C204.936 472.935 205.054 475.312 204.103 476.383C203.151 477.453 202.082 478.285 201.605 479.474C201.13 480.664 199.822 482.09 196.135 484.113C192.448 486.134 191.854 488.631 190.189 489.226C188.524 489.822 187.097 486.135 187.097 485.421Z" fill="#FFEA32" stroke="#263238" stroke-miterlimit="10" stroke-linecap="round" stroke-linejoin="round"/>
<path d="M192.448 500.167C192.448 500.167 196.373 508.253 202.201 509.442C208.027 510.631 209.812 507.182 208.266 504.566C206.72 501.95 204.342 500.285 203.152 498.501C201.963 496.717 200.061 493.387 194.828 495.528C189.595 497.67 192.448 500.167 192.448 500.167Z" fill="#FFEA32" stroke="#263238" stroke-miterlimit="10" stroke-linecap="round" stroke-linejoin="round"/>
<path d="M208.265 504.567C208.265 504.567 214.211 506.946 215.043 503.616C215.876 500.287 211 497.194 207.432 496.837C203.864 496.481 202.199 496.243 202.199 498.146C202.201 500.048 207.075 503.497 208.265 504.567Z" fill="#FFEA32" stroke="#263238" stroke-miterlimit="10" stroke-linecap="round" stroke-linejoin="round"/>
<path d="M181.746 490.534C181.746 490.534 182.102 487.085 183.173 486.729C184.243 486.373 185.433 487.204 185.433 487.204C185.433 487.204 186.266 485.54 187.93 486.252C189.595 486.966 191.379 493.507 192.092 495.528C192.806 497.55 194.114 497.669 193.875 498.977C193.638 500.285 184.243 507.063 180.913 498.025L181.746 490.534Z" fill="#FFEA32" stroke="#263238" stroke-miterlimit="10" stroke-linecap="round" stroke-linejoin="round"/>
<path d="M204.935 486.729C204.935 486.729 207.67 485.183 212.309 482.686C216.947 480.188 222.893 476.978 222.06 480.902C221.227 484.827 215.519 491.011 209.573 493.151C203.626 495.292 202.794 494.934 202.794 494.934C202.794 494.934 198.989 494.696 194.589 491.961C190.19 489.226 191.021 487.085 192.567 486.61C194.113 486.135 204.935 486.729 204.935 486.729Z" fill="#FFEA32" stroke="#263238" stroke-miterlimit="10" stroke-linecap="round" stroke-linejoin="round"/>
<path d="M193.4 497.431C193.4 497.431 195.897 504.685 196.611 510.156C197.324 515.626 194.828 516.816 191.023 514.199C187.217 511.583 186.146 505.637 186.146 505.637C186.146 505.637 188.288 501.95 188.288 499.334C188.288 496.717 189.952 496.123 190.904 496.123C191.854 496.123 193.4 497.431 193.4 497.431Z" fill="#FFEA32" stroke="#263238" stroke-miterlimit="10" stroke-linecap="round" stroke-linejoin="round"/>
<path d="M190.309 487.562C190.309 487.562 197.206 490.653 199.347 491.843C201.488 493.032 203.152 493.507 202.796 494.934C202.439 496.361 203.748 496.361 200.655 498.144C197.563 499.928 195.185 500.761 193.877 498.977C192.569 497.194 189.952 491.604 190.071 490.414C190.189 489.226 189.238 487.324 190.309 487.562Z" fill="#FFEA32" stroke="#263238" stroke-miterlimit="10" stroke-linecap="round" stroke-linejoin="round"/>
<path d="M216.351 496.362C216.351 496.362 214.924 497.67 211.475 498.86C208.026 500.049 200.653 498.146 200.653 498.146L202.676 496.956L202.794 494.935C202.794 494.935 207.552 493.627 210.999 492.2C214.449 490.772 215.994 492.199 216.351 496.362Z" fill="#FFEA32" stroke="#263238" stroke-miterlimit="10" stroke-linecap="round" stroke-linejoin="round"/>
<path d="M181.389 496.837C181.389 496.837 179.487 501.832 178.179 504.211C176.871 506.59 176.277 508.848 179.844 508.968C183.412 509.087 186.741 506.352 188.168 502.665C189.594 498.978 188.049 495.531 185.551 495.292C183.054 495.054 181.865 495.648 181.389 496.837Z" fill="#FFEA32" stroke="#263238" stroke-miterlimit="10" stroke-linecap="round" stroke-linejoin="round"/>
<path d="M187.097 485.421C187.097 485.421 184.718 484.469 185.075 481.259C185.431 478.049 184.956 475.789 181.032 476.859C177.107 477.93 175.205 481.973 175.443 484.708C175.68 487.443 176.394 488.038 176.394 488.038C176.394 488.038 179.844 487.682 180.794 489.109C181.746 490.536 180.913 492.082 180.913 492.082C180.913 492.082 182.577 486.968 184.004 487.087C185.431 487.205 185.431 487.205 185.431 487.205L187.097 485.421Z" fill="#FFEA32" stroke="#263238" stroke-miterlimit="10" stroke-linecap="round" stroke-linejoin="round"/>
<path d="M219.843 273.565C219.843 273.565 203.784 277.191 198.863 279.004C193.942 280.818 187.466 283.148 187.466 283.148L185.913 296.617L193.165 301.797L187.466 303.092L188.761 313.97H194.201L189.021 320.186L206.893 336.504L219.584 329.51L218.807 324.848L224.764 325.107L244.967 309.825L240.823 306.716L246.003 303.868L253.255 290.659C253.255 290.659 259.471 287.55 261.802 287.291C264.133 287.033 271.644 285.219 271.644 285.219C271.644 285.219 259.73 281.334 256.362 281.334C252.995 281.334 237.713 277.189 233.31 276.413C228.909 275.637 219.843 273.565 219.843 273.565Z" fill="#22B123" stroke="#263238" stroke-miterlimit="10" stroke-linecap="round" stroke-linejoin="round"/>
<path d="M223.729 276.155C223.729 276.155 219.586 277.449 213.887 290.919C208.189 304.387 204.563 326.662 205.08 330.806" stroke="#263238" stroke-miterlimit="10" stroke-linecap="round" stroke-linejoin="round"/>
<path d="M207.411 298.171C210.26 284.443 213.887 282.889 213.887 282.889C213.887 282.889 203.785 281.853 197.828 285.738" stroke="#263238" stroke-miterlimit="10" stroke-linecap="round" stroke-linejoin="round"/>
<path d="M225.802 303.869L237.197 307.237" stroke="#263238" stroke-miterlimit="10" stroke-linecap="round" stroke-linejoin="round"/>
<path d="M236.938 289.105L249.112 291.177" stroke="#263238" stroke-miterlimit="10" stroke-linecap="round" stroke-linejoin="round"/>
<path d="M258.436 284.703L247.041 284.962" stroke="#263238" stroke-miterlimit="10" stroke-linecap="round" stroke-linejoin="round"/>
<path d="M220.362 276.413C220.362 276.413 216.995 279.262 215.441 281.076" stroke="#263238" stroke-miterlimit="10" stroke-linecap="round" stroke-linejoin="round"/>
<path d="M271.647 285.22C271.647 285.22 275.014 287.81 273.46 292.472C271.907 297.135 267.245 298.688 264.913 301.019C262.582 303.351 270.871 352.045 270.871 352.045C270.871 352.045 268.151 367.351 264.842 356.189C261.303 344.253 257.152 305.742 256.884 303.869C256.366 300.243 250.927 297.135 250.927 297.135L253.258 290.659L259.215 287.81L271.647 285.22Z" fill="#263238" stroke="#263238" stroke-miterlimit="10" stroke-linecap="round" stroke-linejoin="round"/>
<path d="M47.8184 600.298H618.84" stroke="#263238" stroke-miterlimit="10" stroke-linecap="round" stroke-linejoin="round"/>
</svg>
