<svg width="200" height="200" viewBox="0 0 200 200" fill="none" xmlns="http://www.w3.org/2000/svg">
<circle cx="100" cy="100" r="100" fill="#22B123"/>
<path d="M138.176 74.9L153.776 53.99C154.458 53.0763 154.873 51.9898 154.975 50.8523C155.077 49.7148 154.862 48.5712 154.354 47.5496C153.846 46.5281 153.065 45.669 152.099 45.0685C151.132 44.468 150.018 44.15 148.882 44.15H75.4706C75.4706 42.5189 74.8261 40.9546 73.6788 39.8013C72.5315 38.6479 70.9754 38 69.3529 38C67.7304 38 66.1744 38.6479 65.0271 39.8013C63.8798 40.9546 63.2353 42.5189 63.2353 44.15V148.7H57.1176C55.4951 148.7 53.9391 149.348 52.7918 150.501C51.6445 151.655 51 153.219 51 154.85C51 156.481 51.6445 158.045 52.7918 159.199C53.9391 160.352 55.4951 161 57.1176 161H81.5882C83.2107 161 84.7668 160.352 85.9141 159.199C87.0613 158.045 87.7059 156.481 87.7059 154.85C87.7059 153.219 87.0613 151.655 85.9141 150.501C84.7668 149.348 83.2107 148.7 81.5882 148.7H75.4706V105.65H148.882C150.018 105.65 151.132 105.332 152.099 104.732C153.065 104.131 153.846 103.272 154.354 102.25C154.862 101.229 155.077 100.085 154.975 98.9477C154.873 97.8102 154.458 96.7237 153.776 95.81L138.176 74.9ZM125.635 78.59L136.647 93.35H75.4706V56.45H136.647L125.635 71.21C124.84 72.2741 124.41 73.5691 124.41 74.9C124.41 76.2309 124.84 77.5259 125.635 78.59Z" fill="#FBFEFA"/>
</svg>
