<svg width="200" height="200" viewBox="0 0 200 200" fill="none" xmlns="http://www.w3.org/2000/svg">
<circle cx="100" cy="100" r="100" fill="#22B123"/>
<path d="M100.391 166.782C137.057 166.782 166.781 137.058 166.781 100.391C166.781 63.7244 137.057 34.0002 100.391 34.0002C63.7241 34.0002 34 63.7244 34 100.391C34 137.058 63.7241 166.782 100.391 166.782Z" fill="#FBFEFA"/>
<path d="M100.391 148.532C126.979 148.532 148.532 126.979 148.532 100.391C148.532 73.8034 126.979 52.2498 100.391 52.2498C73.8033 52.2498 52.2498 73.8034 52.2498 100.391C52.2498 126.979 73.8033 148.532 100.391 148.532Z" fill="#22B123"/>
<path d="M100.391 130.283C116.9 130.283 130.283 116.9 130.283 100.391C130.283 83.8824 116.9 70.4995 100.391 70.4995C83.8824 70.4995 70.4995 83.8824 70.4995 100.391C70.4995 116.9 83.8824 130.283 100.391 130.283Z" fill="#FBFEFA"/>
<path d="M100.391 112.033C106.821 112.033 112.033 106.821 112.033 100.391C112.033 93.9614 106.821 88.749 100.391 88.749C93.9614 88.749 88.749 93.9614 88.749 100.391C88.749 106.821 93.9614 112.033 100.391 112.033Z" fill="#FBFEFA"/>
<path d="M100.391 34C98.4539 34 96.5381 34.0877 94.6436 34.2503C128.619 37.1643 155.287 65.6609 155.287 100.391C155.287 135.121 128.619 163.617 94.6436 166.532C96.5381 166.694 98.4539 166.782 100.391 166.782C137.057 166.782 166.781 137.058 166.781 100.391C166.781 63.7245 137.057 34 100.391 34Z" fill="#FBFEFA"/>
</svg>
